<svg xmlns="http://www.w3.org/2000/svg" width="16" height="6" viewBox="0 0 16 6">
  <defs>
    <style>
      .cls-1 {
        fill: #3f3f3f;
      }
    </style>
  </defs>
  <g id="组_57136" data-name="组 57136" transform="translate(-178 -1241.098)">
    <g id="组_57130" data-name="组 57130" transform="translate(121.111 956.88)">
      <path id="路径_32858" data-name="路径 32858" class="cls-1" d="M63.67,509.243H57.108c-.121,0-.219-.147-.219-.328s.1-.328.219-.328H63.67c.121,0,.219.147.219.328s-.1.328-.219.328Z" transform="translate(0 -221.682)"/>
      <path id="路径_32859" data-name="路径 32859" class="cls-1" d="M691.3,287.459a.327.327,0,0,1-.233-.1l-2.555-2.585a.328.328,0,0,1,.466-.462l2.555,2.585a.328.328,0,0,1-.233.559Z" transform="translate(-627.74)"/>
      <path id="路径_32860" data-name="路径 32860" class="cls-1" d="M686.182,512.236a.328.328,0,0,1-.231-.561l2.585-2.555a.328.328,0,1,1,.462.466l-2.585,2.555A.328.328,0,0,1,686.182,512.236Z" transform="translate(-625.21 -222.017)"/>
    </g>
    <g id="组_57131" data-name="组 57131" transform="translate(250.889 1531.317) rotate(180)">
      <path id="路径_32858-2" data-name="路径 32858" class="cls-1" d="M63.67,509.243H57.108c-.121,0-.219-.147-.219-.328s.1-.328.219-.328H63.67c.121,0,.219.147.219.328s-.1.328-.219.328Z" transform="translate(0 -221.682)"/>
      <path id="路径_32859-2" data-name="路径 32859" class="cls-1" d="M691.3,287.459a.327.327,0,0,1-.233-.1l-2.555-2.585a.328.328,0,0,1,.466-.462l2.555,2.585a.328.328,0,0,1-.233.559Z" transform="translate(-627.74)"/>
      <path id="路径_32860-2" data-name="路径 32860" class="cls-1" d="M686.182,512.236a.328.328,0,0,1-.231-.561l2.585-2.555a.328.328,0,1,1,.462.466l-2.585,2.555A.328.328,0,0,1,686.182,512.236Z" transform="translate(-625.21 -222.017)"/>
    </g>
  </g>
</svg>
