<svg id="BNB" xmlns="http://www.w3.org/2000/svg" width="21" height="21" viewBox="0 0 21 21">
  <defs>
    <style>
      .cls-1 {
        fill: #f0b90b;
      }

      .cls-2 {
        fill: #fff;
      }
    </style>
  </defs>
  <circle id="椭圆_468" data-name="椭圆 468" class="cls-1" cx="10.5" cy="10.5" r="10.5"/>
  <path id="路径_51999" data-name="路径 51999" class="cls-2" d="M22.907,18.472,27.1,16.064l4.193,2.408-1.542.89L27.1,17.843l-2.652,1.519Zm8.386,3.037-1.542-.89L27.1,22.138l-2.652-1.519-1.542.89v1.779l2.652,1.519v3.037l1.542.89,1.542-.89V24.807l2.652-1.519Zm0,4.816V24.546l-1.542.89v1.779Zm1.095.629-2.652,1.519v1.779l4.193-2.408V23.028l-1.542.89ZM30.846,19.99l1.542.89v1.779l1.542-.89V19.99l-1.542-.89Zm-5.288,9.127V30.9l1.542.89,1.542-.89V29.117l-1.542.89Zm-2.652-2.792,1.542.89V25.436l-1.542-.89Zm2.652-6.335,1.542.89,1.542-.89L27.1,19.1Zm-3.746.89,1.542-.89-1.542-.89-1.542.89V21.77l1.542.89Zm0,3.037-1.542-.89v4.816l4.193,2.408V28.473l-2.652-1.519Z" transform="translate(-16.579 -13.423)"/>
</svg>
