<svg xmlns="http://www.w3.org/2000/svg" xmlns:xlink="http://www.w3.org/1999/xlink" width="264.421" height="145.307" viewBox="0 0 264.421 145.307">
  <defs>
    <style>
      .cls-1, .cls-13, .cls-4 {
        fill: #a614cc;
      }

      .cls-2, .cls-7 {
        fill: none;
      }

      .cls-10, .cls-12, .cls-13, .cls-2, .cls-3, .cls-4 {
        stroke: #03ffec;
      }

      .cls-12, .cls-2, .cls-3, .cls-4, .cls-7, .cls-8 {
        stroke-linecap: round;
        stroke-linejoin: round;
      }

      .cls-13, .cls-2, .cls-4, .cls-7, .cls-8 {
        stroke-width: 1.882px;
      }

      .cls-3 {
        fill: #ff03d0;
      }

      .cls-12, .cls-3 {
        stroke-width: 2.518px;
      }

      .cls-5 {
        opacity: 0.5;
        mix-blend-mode: screen;
        isolation: isolate;
      }

      .cls-6, .cls-8 {
        fill: #03fff2;
      }

      .cls-7, .cls-8 {
        stroke: #03fff2;
      }

      .cls-12, .cls-9 {
        fill: #ab04cf;
      }

      .cls-9 {
        stroke: #08ffff;
      }

      .cls-10, .cls-9 {
        stroke-miterlimit: 10;
        stroke-width: 3.269px;
      }

      .cls-10 {
        fill: #7f0ac7;
      }

      .cls-11 {
        fill: #fff;
      }

      .cls-14 {
        filter: url(#路径_23054);
      }

      .cls-15 {
        filter: url(#路径_23053);
      }

      .cls-16 {
        filter: url(#路径_23052);
      }

      .cls-17 {
        filter: url(#路径_23051);
      }

      .cls-18 {
        filter: url(#路径_23050);
      }

      .cls-19 {
        filter: url(#路径_23049);
      }

      .cls-20 {
        filter: url(#路径_23048);
      }

      .cls-21 {
        filter: url(#路径_23047);
      }

      .cls-22 {
        filter: url(#路径_23046);
      }

      .cls-23 {
        filter: url(#路径_23045);
      }

      .cls-24 {
        filter: url(#路径_23044);
      }

      .cls-25 {
        filter: url(#路径_23043);
      }

      .cls-26 {
        filter: url(#路径_23042);
      }

      .cls-27 {
        filter: url(#路径_23041);
      }

      .cls-28 {
        filter: url(#路径_23039);
      }

      .cls-29 {
        filter: url(#路径_23038);
      }

      .cls-30 {
        filter: url(#路径_23037);
      }

      .cls-31 {
        filter: url(#路径_23036);
      }

      .cls-32 {
        filter: url(#路径_23034);
      }

      .cls-33 {
        filter: url(#路径_23033);
      }

      .cls-34 {
        filter: url(#路径_23032);
      }

      .cls-35 {
        filter: url(#路径_23031);
      }

      .cls-36 {
        filter: url(#路径_23030);
      }

      .cls-37 {
        filter: url(#路径_23029);
      }

      .cls-38 {
        filter: url(#路径_23028);
      }

      .cls-39 {
        filter: url(#路径_23027);
      }

      .cls-40 {
        filter: url(#路径_23026);
      }

      .cls-41 {
        filter: url(#路径_23025);
      }

      .cls-42 {
        filter: url(#路径_23024);
      }

      .cls-43 {
        filter: url(#路径_23023);
      }

      .cls-44 {
        filter: url(#路径_23022);
      }

      .cls-45 {
        filter: url(#路径_23021);
      }
    </style>
    <filter id="路径_23021" x="13.037" y="37.429" width="13.38" height="13.383" filterUnits="userSpaceOnUse">
      <feOffset input="SourceAlpha"/>
      <feGaussianBlur stdDeviation="0.976" result="blur"/>
      <feFlood flood-color="#03ffff" flood-opacity="0.749"/>
      <feComposite operator="in" in2="blur"/>
      <feComposite in="SourceGraphic"/>
    </filter>
    <filter id="路径_23022" x="33.746" y="37.429" width="13.381" height="13.383" filterUnits="userSpaceOnUse">
      <feOffset input="SourceAlpha"/>
      <feGaussianBlur stdDeviation="0.976" result="blur-2"/>
      <feFlood flood-color="#03ffff" flood-opacity="0.749"/>
      <feComposite operator="in" in2="blur-2"/>
      <feComposite in="SourceGraphic"/>
    </filter>
    <filter id="路径_23023" x="54.455" y="37.429" width="13.381" height="13.383" filterUnits="userSpaceOnUse">
      <feOffset input="SourceAlpha"/>
      <feGaussianBlur stdDeviation="0.976" result="blur-3"/>
      <feFlood flood-color="#03ffff" flood-opacity="0.749"/>
      <feComposite operator="in" in2="blur-3"/>
      <feComposite in="SourceGraphic"/>
    </filter>
    <filter id="路径_23024" x="75.164" y="37.429" width="13.38" height="13.383" filterUnits="userSpaceOnUse">
      <feOffset input="SourceAlpha"/>
      <feGaussianBlur stdDeviation="0.976" result="blur-4"/>
      <feFlood flood-color="#03ffff" flood-opacity="0.749"/>
      <feComposite operator="in" in2="blur-4"/>
      <feComposite in="SourceGraphic"/>
    </filter>
    <filter id="路径_23025" x="95.873" y="37.429" width="13.381" height="13.383" filterUnits="userSpaceOnUse">
      <feOffset input="SourceAlpha"/>
      <feGaussianBlur stdDeviation="0.976" result="blur-5"/>
      <feFlood flood-color="#03ffff" flood-opacity="0.749"/>
      <feComposite operator="in" in2="blur-5"/>
      <feComposite in="SourceGraphic"/>
    </filter>
    <filter id="路径_23026" x="116.583" y="37.429" width="13.381" height="13.383" filterUnits="userSpaceOnUse">
      <feOffset input="SourceAlpha"/>
      <feGaussianBlur stdDeviation="0.976" result="blur-6"/>
      <feFlood flood-color="#03ffff" flood-opacity="0.749"/>
      <feComposite operator="in" in2="blur-6"/>
      <feComposite in="SourceGraphic"/>
    </filter>
    <filter id="路径_23027" x="137.292" y="37.429" width="13.381" height="13.383" filterUnits="userSpaceOnUse">
      <feOffset input="SourceAlpha"/>
      <feGaussianBlur stdDeviation="0.976" result="blur-7"/>
      <feFlood flood-color="#03ffff" flood-opacity="0.749"/>
      <feComposite operator="in" in2="blur-7"/>
      <feComposite in="SourceGraphic"/>
    </filter>
    <filter id="路径_23028" x="158.001" y="37.429" width="13.379" height="13.383" filterUnits="userSpaceOnUse">
      <feOffset input="SourceAlpha"/>
      <feGaussianBlur stdDeviation="0.976" result="blur-8"/>
      <feFlood flood-color="#03ffff" flood-opacity="0.749"/>
      <feComposite operator="in" in2="blur-8"/>
      <feComposite in="SourceGraphic"/>
    </filter>
    <filter id="路径_23029" x="178.711" y="37.429" width="13.379" height="13.383" filterUnits="userSpaceOnUse">
      <feOffset input="SourceAlpha"/>
      <feGaussianBlur stdDeviation="0.976" result="blur-9"/>
      <feFlood flood-color="#03ffff" flood-opacity="0.749"/>
      <feComposite operator="in" in2="blur-9"/>
      <feComposite in="SourceGraphic"/>
    </filter>
    <filter id="路径_23030" x="199.42" y="37.429" width="13.379" height="13.383" filterUnits="userSpaceOnUse">
      <feOffset input="SourceAlpha"/>
      <feGaussianBlur stdDeviation="0.976" result="blur-10"/>
      <feFlood flood-color="#03ffff" flood-opacity="0.749"/>
      <feComposite operator="in" in2="blur-10"/>
      <feComposite in="SourceGraphic"/>
    </filter>
    <filter id="路径_23031" x="220.128" y="37.429" width="13.381" height="13.383" filterUnits="userSpaceOnUse">
      <feOffset input="SourceAlpha"/>
      <feGaussianBlur stdDeviation="0.976" result="blur-11"/>
      <feFlood flood-color="#03ffff" flood-opacity="0.749"/>
      <feComposite operator="in" in2="blur-11"/>
      <feComposite in="SourceGraphic"/>
    </filter>
    <filter id="路径_23032" x="240.837" y="37.429" width="13.382" height="13.383" filterUnits="userSpaceOnUse">
      <feOffset input="SourceAlpha"/>
      <feGaussianBlur stdDeviation="0.976" result="blur-12"/>
      <feFlood flood-color="#03ffff" flood-opacity="0.749"/>
      <feComposite operator="in" in2="blur-12"/>
      <feComposite in="SourceGraphic"/>
    </filter>
    <filter id="路径_23033" x="248.447" y="51.348" width="13.382" height="13.38" filterUnits="userSpaceOnUse">
      <feOffset input="SourceAlpha"/>
      <feGaussianBlur stdDeviation="0.976" result="blur-13"/>
      <feFlood flood-color="#03ffff" flood-opacity="0.749"/>
      <feComposite operator="in" in2="blur-13"/>
      <feComposite in="SourceGraphic"/>
    </filter>
    <filter id="路径_23034" x="248.441" y="73.373" width="13.382" height="13.38" filterUnits="userSpaceOnUse">
      <feOffset input="SourceAlpha"/>
      <feGaussianBlur stdDeviation="0.976" result="blur-14"/>
      <feFlood flood-color="#03ffff" flood-opacity="0.749"/>
      <feComposite operator="in" in2="blur-14"/>
      <feComposite in="SourceGraphic"/>
    </filter>
    <filter id="路径_23036" x="248.432" y="95.398" width="13.383" height="13.381" filterUnits="userSpaceOnUse">
      <feOffset input="SourceAlpha"/>
      <feGaussianBlur stdDeviation="0.976" result="blur-15"/>
      <feFlood flood-color="#03ffff" flood-opacity="0.749"/>
      <feComposite operator="in" in2="blur-15"/>
      <feComposite in="SourceGraphic"/>
    </filter>
    <filter id="路径_23037" x="248.427" y="117.423" width="13.383" height="13.382" filterUnits="userSpaceOnUse">
      <feOffset input="SourceAlpha"/>
      <feGaussianBlur stdDeviation="0.976" result="blur-16"/>
      <feFlood flood-color="#03ffff" flood-opacity="0.749"/>
      <feComposite operator="in" in2="blur-16"/>
      <feComposite in="SourceGraphic"/>
    </filter>
    <filter id="路径_23038" x="1.991" y="51.348" width="13.383" height="13.38" filterUnits="userSpaceOnUse">
      <feOffset input="SourceAlpha"/>
      <feGaussianBlur stdDeviation="0.976" result="blur-17"/>
      <feFlood flood-color="#03ffff" flood-opacity="0.749"/>
      <feComposite operator="in" in2="blur-17"/>
      <feComposite in="SourceGraphic"/>
    </filter>
    <filter id="路径_23039" x="1.986" y="73.373" width="13.383" height="13.38" filterUnits="userSpaceOnUse">
      <feOffset input="SourceAlpha"/>
      <feGaussianBlur stdDeviation="0.976" result="blur-18"/>
      <feFlood flood-color="#03ffff" flood-opacity="0.749"/>
      <feComposite operator="in" in2="blur-18"/>
      <feComposite in="SourceGraphic"/>
    </filter>
    <filter id="路径_23041" x="1.976" y="95.398" width="13.383" height="13.38" filterUnits="userSpaceOnUse">
      <feOffset input="SourceAlpha"/>
      <feGaussianBlur stdDeviation="0.976" result="blur-19"/>
      <feFlood flood-color="#03ffff" flood-opacity="0.749"/>
      <feComposite operator="in" in2="blur-19"/>
      <feComposite in="SourceGraphic"/>
    </filter>
    <filter id="路径_23042" x="1.971" y="117.423" width="13.382" height="13.382" filterUnits="userSpaceOnUse">
      <feOffset input="SourceAlpha"/>
      <feGaussianBlur stdDeviation="0.976" result="blur-20"/>
      <feFlood flood-color="#03ffff" flood-opacity="0.749"/>
      <feComposite operator="in" in2="blur-20"/>
      <feComposite in="SourceGraphic"/>
    </filter>
    <filter id="路径_23043" x="11.619" y="129.276" width="13.381" height="13.383" filterUnits="userSpaceOnUse">
      <feOffset input="SourceAlpha"/>
      <feGaussianBlur stdDeviation="0.976" result="blur-21"/>
      <feFlood flood-color="#03ffff" flood-opacity="0.749"/>
      <feComposite operator="in" in2="blur-21"/>
      <feComposite in="SourceGraphic"/>
    </filter>
    <filter id="路径_23044" x="32.329" y="129.276" width="13.382" height="13.383" filterUnits="userSpaceOnUse">
      <feOffset input="SourceAlpha"/>
      <feGaussianBlur stdDeviation="0.976" result="blur-22"/>
      <feFlood flood-color="#03ffff" flood-opacity="0.749"/>
      <feComposite operator="in" in2="blur-22"/>
      <feComposite in="SourceGraphic"/>
    </filter>
    <filter id="路径_23045" x="53.038" y="129.276" width="13.381" height="13.383" filterUnits="userSpaceOnUse">
      <feOffset input="SourceAlpha"/>
      <feGaussianBlur stdDeviation="0.976" result="blur-23"/>
      <feFlood flood-color="#03ffff" flood-opacity="0.749"/>
      <feComposite operator="in" in2="blur-23"/>
      <feComposite in="SourceGraphic"/>
    </filter>
    <filter id="路径_23046" x="73.747" y="129.276" width="13.381" height="13.383" filterUnits="userSpaceOnUse">
      <feOffset input="SourceAlpha"/>
      <feGaussianBlur stdDeviation="0.976" result="blur-24"/>
      <feFlood flood-color="#03ffff" flood-opacity="0.749"/>
      <feComposite operator="in" in2="blur-24"/>
      <feComposite in="SourceGraphic"/>
    </filter>
    <filter id="路径_23047" x="94.457" y="129.276" width="13.38" height="13.383" filterUnits="userSpaceOnUse">
      <feOffset input="SourceAlpha"/>
      <feGaussianBlur stdDeviation="0.976" result="blur-25"/>
      <feFlood flood-color="#03ffff" flood-opacity="0.749"/>
      <feComposite operator="in" in2="blur-25"/>
      <feComposite in="SourceGraphic"/>
    </filter>
    <filter id="路径_23048" x="115.166" y="129.276" width="13.379" height="13.383" filterUnits="userSpaceOnUse">
      <feOffset input="SourceAlpha"/>
      <feGaussianBlur stdDeviation="0.976" result="blur-26"/>
      <feFlood flood-color="#03ffff" flood-opacity="0.749"/>
      <feComposite operator="in" in2="blur-26"/>
      <feComposite in="SourceGraphic"/>
    </filter>
    <filter id="路径_23049" x="135.875" y="129.276" width="13.381" height="13.383" filterUnits="userSpaceOnUse">
      <feOffset input="SourceAlpha"/>
      <feGaussianBlur stdDeviation="0.976" result="blur-27"/>
      <feFlood flood-color="#03ffff" flood-opacity="0.749"/>
      <feComposite operator="in" in2="blur-27"/>
      <feComposite in="SourceGraphic"/>
    </filter>
    <filter id="路径_23050" x="156.584" y="129.276" width="13.381" height="13.383" filterUnits="userSpaceOnUse">
      <feOffset input="SourceAlpha"/>
      <feGaussianBlur stdDeviation="0.976" result="blur-28"/>
      <feFlood flood-color="#03ffff" flood-opacity="0.749"/>
      <feComposite operator="in" in2="blur-28"/>
      <feComposite in="SourceGraphic"/>
    </filter>
    <filter id="路径_23051" x="177.293" y="129.276" width="13.38" height="13.383" filterUnits="userSpaceOnUse">
      <feOffset input="SourceAlpha"/>
      <feGaussianBlur stdDeviation="0.976" result="blur-29"/>
      <feFlood flood-color="#03ffff" flood-opacity="0.749"/>
      <feComposite operator="in" in2="blur-29"/>
      <feComposite in="SourceGraphic"/>
    </filter>
    <filter id="路径_23052" x="198.002" y="129.276" width="13.38" height="13.383" filterUnits="userSpaceOnUse">
      <feOffset input="SourceAlpha"/>
      <feGaussianBlur stdDeviation="0.976" result="blur-30"/>
      <feFlood flood-color="#03ffff" flood-opacity="0.749"/>
      <feComposite operator="in" in2="blur-30"/>
      <feComposite in="SourceGraphic"/>
    </filter>
    <filter id="路径_23053" x="218.712" y="129.276" width="13.379" height="13.383" filterUnits="userSpaceOnUse">
      <feOffset input="SourceAlpha"/>
      <feGaussianBlur stdDeviation="0.976" result="blur-31"/>
      <feFlood flood-color="#03ffff" flood-opacity="0.749"/>
      <feComposite operator="in" in2="blur-31"/>
      <feComposite in="SourceGraphic"/>
    </filter>
    <filter id="路径_23054" x="239.421" y="129.276" width="13.379" height="13.383" filterUnits="userSpaceOnUse">
      <feOffset input="SourceAlpha"/>
      <feGaussianBlur stdDeviation="0.976" result="blur-32"/>
      <feFlood flood-color="#03ffff" flood-opacity="0.749"/>
      <feComposite operator="in" in2="blur-32"/>
      <feComposite in="SourceGraphic"/>
    </filter>
  </defs>
  <g id="组_46475" data-name="组 46475" transform="translate(-55.366 -618.741)">
    <g id="组_45477" data-name="组 45477" transform="translate(81.756 620)">
      <g id="组_45471" data-name="组 45471" transform="translate(0 0)">
        <g id="组_45470" data-name="组 45470">
          <g id="组_45468" data-name="组 45468" transform="translate(0 15.794)">
            <path id="路径_23008" data-name="路径 23008" class="cls-1" d="M770.448,47.488l21.629,41.45L740.85,55.882Z" transform="translate(-740.85 -47.488)"/>
            <path id="路径_23009" data-name="路径 23009" class="cls-2" d="M770.448,47.488l21.629,41.45L740.85,55.882Z" transform="translate(-740.85 -47.488)"/>
          </g>
          <path id="路径_23010" data-name="路径 23010" class="cls-3" d="M770.448,46.072l-9.8,4.386L758.7,61.021l-7.2-7.969L740.85,54.465l5.354-9.312-4.635-9.689,10.511,2.215,7.783-7.4L761,40.957Z" transform="translate(-740.85 -30.277)"/>
          <g id="组_45469" data-name="组 45469" transform="translate(17.849 30.743)">
            <line id="直线_739" data-name="直线 739" class="cls-1" x2="33.378" y2="26.501"/>
            <line id="直线_740" data-name="直线 740" class="cls-2" x2="33.378" y2="26.501"/>
          </g>
          <line id="直线_741" data-name="直线 741" class="cls-4" x2="29.304" y2="35.945" transform="translate(20.254 19.975)"/>
        </g>
      </g>
      <g id="组_45476" data-name="组 45476" transform="translate(0.917 16.712)">
        <g id="组_45475" data-name="组 45475" class="cls-5">
          <g id="组_45474" data-name="组 45474">
            <g id="组_45472" data-name="组 45472">
              <path id="路径_23011" data-name="路径 23011" class="cls-6" d="M770.448,47.488l21.629,41.45L740.85,55.882Z" transform="translate(-740.85 -47.488)"/>
              <path id="路径_23012" data-name="路径 23012" class="cls-7" d="M770.448,47.488l21.629,41.45L740.85,55.882Z" transform="translate(-740.85 -47.488)"/>
            </g>
            <g id="组_45473" data-name="组 45473" transform="translate(17.849 14.949)">
              <line id="直线_742" data-name="直线 742" class="cls-6" x2="33.378" y2="26.501"/>
              <line id="直线_743" data-name="直线 743" class="cls-7" x2="33.378" y2="26.501"/>
            </g>
            <line id="直线_744" data-name="直线 744" class="cls-8" x2="29.304" y2="35.945" transform="translate(20.254 4.18)"/>
          </g>
        </g>
      </g>
    </g>
    <g id="组_45487" data-name="组 45487" transform="translate(244.295 621)">
      <g id="组_45481" data-name="组 45481" transform="translate(0 0)">
        <g id="组_45480" data-name="组 45480">
          <g id="组_45478" data-name="组 45478" transform="translate(0 15.794)">
            <path id="路径_23014" data-name="路径 23014" class="cls-1" d="M927.605,49.8,905.977,91.25,957.2,58.193Z" transform="translate(-905.977 -49.799)"/>
            <path id="路径_23015" data-name="路径 23015" class="cls-2" d="M927.605,49.8,905.977,91.25,957.2,58.193Z" transform="translate(-905.977 -49.799)"/>
          </g>
          <path id="路径_23016" data-name="路径 23016" class="cls-3" d="M929.545,48.383l9.8,4.386,1.945,10.563,7.2-7.969,10.648,1.414-5.354-9.312,4.635-9.689-10.511,2.215-7.782-7.4-1.142,10.68Z" transform="translate(-907.916 -32.589)"/>
          <g id="组_45479" data-name="组 45479" transform="translate(0 30.743)">
            <line id="直线_745" data-name="直线 745" class="cls-1" x1="33.378" y2="26.501"/>
            <line id="直线_746" data-name="直线 746" class="cls-2" x1="33.378" y2="26.501"/>
          </g>
          <line id="直线_747" data-name="直线 747" class="cls-4" x1="29.304" y2="35.945" transform="translate(1.669 19.975)"/>
        </g>
      </g>
      <g id="组_45486" data-name="组 45486" transform="translate(0 15.794)">
        <g id="组_45485" data-name="组 45485" class="cls-5">
          <g id="组_45484" data-name="组 45484">
            <g id="组_45482" data-name="组 45482">
              <path id="路径_23017" data-name="路径 23017" class="cls-6" d="M927.605,49.8,905.977,91.25,957.2,58.193Z" transform="translate(-905.977 -49.799)"/>
              <path id="路径_23018" data-name="路径 23018" class="cls-7" d="M927.605,49.8,905.977,91.25,957.2,58.193Z" transform="translate(-905.977 -49.799)"/>
            </g>
            <g id="组_45483" data-name="组 45483" transform="translate(0 14.949)">
              <line id="直线_748" data-name="直线 748" class="cls-6" x1="33.378" y2="26.501"/>
              <line id="直线_749" data-name="直线 749" class="cls-7" x1="33.378" y2="26.501"/>
            </g>
            <line id="直线_750" data-name="直线 750" class="cls-8" x1="29.304" y2="35.945" transform="translate(1.669 4.18)"/>
          </g>
        </g>
      </g>
    </g>
    <g id="组_45488" data-name="组 45488" transform="translate(57 654.777)">
      <rect id="矩形_15965" data-name="矩形 15965" class="cls-9" width="261.151" height="107.636" rx="16.441" transform="translate(0 0)"/>
      <path id="路径_23020" data-name="路径 23020" class="cls-10" d="M721.59,162.384a.127.127,0,0,1-.087-.047V84.822a.1.1,0,0,1,.058-.071h231a.125.125,0,0,1,.088.048v77.514a.106.106,0,0,1-.058.071h-231Z" transform="translate(-706.501 -69.748)"/>
      <g class="cls-45" transform="matrix(1, 0, 0, 1, -1.63, -36.04)">
        <path id="路径_23021-2" data-name="路径 23021" class="cls-11" d="M728.238,76.221a3.762,3.762,0,1,1-4.36-3.053A3.763,3.763,0,0,1,728.238,76.221Z" transform="translate(-704.81 -32.75)"/>
      </g>
      <g class="cls-44" transform="matrix(1, 0, 0, 1, -1.63, -36.04)">
        <path id="路径_23022-2" data-name="路径 23022" class="cls-11" d="M750.806,76.221a3.763,3.763,0,1,1-4.361-3.053A3.765,3.765,0,0,1,750.806,76.221Z" transform="translate(-706.66 -32.75)"/>
      </g>
      <g class="cls-43" transform="matrix(1, 0, 0, 1, -1.63, -36.04)">
        <path id="路径_23023-2" data-name="路径 23023" class="cls-11" d="M773.371,76.221a3.762,3.762,0,1,1-4.361-3.053A3.763,3.763,0,0,1,773.371,76.221Z" transform="translate(-708.52 -32.75)"/>
      </g>
      <g class="cls-42" transform="matrix(1, 0, 0, 1, -1.63, -36.04)">
        <path id="路径_23024-2" data-name="路径 23024" class="cls-11" d="M795.937,76.221a3.762,3.762,0,1,1-4.361-3.053A3.762,3.762,0,0,1,795.937,76.221Z" transform="translate(-710.38 -32.75)"/>
      </g>
      <g class="cls-41" transform="matrix(1, 0, 0, 1, -1.63, -36.04)">
        <path id="路径_23025-2" data-name="路径 23025" class="cls-11" d="M818.5,76.221a3.763,3.763,0,1,1-4.361-3.053A3.764,3.764,0,0,1,818.5,76.221Z" transform="translate(-712.23 -32.75)"/>
      </g>
      <g class="cls-40" transform="matrix(1, 0, 0, 1, -1.63, -36.04)">
        <path id="路径_23026-2" data-name="路径 23026" class="cls-11" d="M841.07,76.221a3.763,3.763,0,1,1-4.361-3.053A3.763,3.763,0,0,1,841.07,76.221Z" transform="translate(-714.09 -32.75)"/>
      </g>
      <g class="cls-39" transform="matrix(1, 0, 0, 1, -1.63, -36.04)">
        <path id="路径_23027-2" data-name="路径 23027" class="cls-11" d="M863.636,76.221a3.763,3.763,0,1,1-4.361-3.053A3.764,3.764,0,0,1,863.636,76.221Z" transform="translate(-715.95 -32.75)"/>
      </g>
      <g class="cls-38" transform="matrix(1, 0, 0, 1, -1.63, -36.04)">
        <path id="路径_23028-2" data-name="路径 23028" class="cls-11" d="M886.2,76.221a3.762,3.762,0,1,1-4.361-3.053A3.763,3.763,0,0,1,886.2,76.221Z" transform="translate(-717.81 -32.75)"/>
      </g>
      <g class="cls-37" transform="matrix(1, 0, 0, 1, -1.63, -36.04)">
        <path id="路径_23029-2" data-name="路径 23029" class="cls-11" d="M908.767,76.221a3.762,3.762,0,1,1-4.361-3.053A3.762,3.762,0,0,1,908.767,76.221Z" transform="translate(-719.66 -32.75)"/>
      </g>
      <g class="cls-36" transform="matrix(1, 0, 0, 1, -1.63, -36.04)">
        <path id="路径_23030-2" data-name="路径 23030" class="cls-11" d="M931.334,76.221a3.762,3.762,0,1,1-4.361-3.053A3.764,3.764,0,0,1,931.334,76.221Z" transform="translate(-721.52 -32.75)"/>
      </g>
      <g class="cls-35" transform="matrix(1, 0, 0, 1, -1.63, -36.04)">
        <path id="路径_23031-2" data-name="路径 23031" class="cls-11" d="M953.9,76.221a3.763,3.763,0,1,1-4.361-3.053A3.762,3.762,0,0,1,953.9,76.221Z" transform="translate(-723.38 -32.75)"/>
      </g>
      <g class="cls-34" transform="matrix(1, 0, 0, 1, -1.63, -36.04)">
        <path id="路径_23032-2" data-name="路径 23032" class="cls-11" d="M976.467,76.221a3.763,3.763,0,1,1-4.361-3.053A3.764,3.764,0,0,1,976.467,76.221Z" transform="translate(-725.23 -32.75)"/>
      </g>
      <g class="cls-33" transform="matrix(1, 0, 0, 1, -1.63, -36.04)">
        <path id="路径_23033-2" data-name="路径 23033" class="cls-11" d="M981.706,95.731a3.762,3.762,0,1,1,3.054-4.361A3.762,3.762,0,0,1,981.706,95.731Z" transform="translate(-725.92 -33.99)"/>
      </g>
      <g class="cls-32" transform="matrix(1, 0, 0, 1, -1.63, -36.04)">
        <path id="路径_23034-2" data-name="路径 23034" class="cls-11" d="M981.7,118.3a3.762,3.762,0,1,1,3.054-4.36A3.764,3.764,0,0,1,981.7,118.3Z" transform="translate(-725.91 -34.53)"/>
      </g>
      <g class="cls-31" transform="matrix(1, 0, 0, 1, -1.63, -36.04)">
        <path id="路径_23036-2" data-name="路径 23036" class="cls-11" d="M981.69,163.429a3.763,3.763,0,1,1,3.054-4.359A3.762,3.762,0,0,1,981.69,163.429Z" transform="translate(-725.91 -57.63)"/>
      </g>
      <g class="cls-30" transform="matrix(1, 0, 0, 1, -1.63, -36.04)">
        <path id="路径_23037-2" data-name="路径 23037" class="cls-11" d="M981.684,186a3.763,3.763,0,1,1,3.054-4.36A3.763,3.763,0,0,1,981.684,186Z" transform="translate(-725.91 -58.18)"/>
      </g>
      <g class="cls-29" transform="matrix(1, 0, 0, 1, -1.63, -36.04)">
        <path id="路径_23038-2" data-name="路径 23038" class="cls-11" d="M713.151,96.022a3.762,3.762,0,1,1,3.054-4.36A3.761,3.761,0,0,1,713.151,96.022Z" transform="translate(-703.82 -34.28)"/>
      </g>
      <g class="cls-28" transform="matrix(1, 0, 0, 1, -1.63, -36.04)">
        <path id="路径_23039-2" data-name="路径 23039" class="cls-11" d="M713.145,118.589a3.762,3.762,0,1,1,3.054-4.36A3.765,3.765,0,0,1,713.145,118.589Z" transform="translate(-703.82 -34.82)"/>
      </g>
      <g class="cls-27" transform="matrix(1, 0, 0, 1, -1.63, -36.04)">
        <path id="路径_23041-2" data-name="路径 23041" class="cls-11" d="M713.135,163.72a3.762,3.762,0,1,1,3.054-4.358A3.762,3.762,0,0,1,713.135,163.72Z" transform="translate(-703.81 -57.93)"/>
      </g>
      <g class="cls-26" transform="matrix(1, 0, 0, 1, -1.63, -36.04)">
        <path id="路径_23042-2" data-name="路径 23042" class="cls-11" d="M713.129,186.288a3.763,3.763,0,1,1,3.054-4.36A3.762,3.762,0,0,1,713.129,186.288Z" transform="translate(-703.81 -58.47)"/>
      </g>
      <g class="cls-25" transform="matrix(1, 0, 0, 1, -1.63, -36.04)">
        <path id="路径_23043-2" data-name="路径 23043" class="cls-11" d="M726.7,194.721a3.763,3.763,0,1,1-4.361-3.053A3.763,3.763,0,0,1,726.7,194.721Z" transform="translate(-704.68 -59.41)"/>
      </g>
      <g class="cls-24" transform="matrix(1, 0, 0, 1, -1.63, -36.04)">
        <path id="路径_23044-2" data-name="路径 23044" class="cls-11" d="M749.262,194.721a3.763,3.763,0,1,1-4.361-3.053A3.764,3.764,0,0,1,749.262,194.721Z" transform="translate(-706.54 -59.41)"/>
      </g>
      <g class="cls-23" transform="matrix(1, 0, 0, 1, -1.63, -36.04)">
        <path id="路径_23045-2" data-name="路径 23045" class="cls-11" d="M771.827,194.721a3.762,3.762,0,1,1-4.36-3.053A3.763,3.763,0,0,1,771.827,194.721Z" transform="translate(-708.39 -59.41)"/>
      </g>
      <g class="cls-22" transform="matrix(1, 0, 0, 1, -1.63, -36.04)">
        <path id="路径_23046-2" data-name="路径 23046" class="cls-11" d="M794.393,194.721a3.762,3.762,0,1,1-4.36-3.053A3.762,3.762,0,0,1,794.393,194.721Z" transform="translate(-710.25 -59.41)"/>
      </g>
      <g class="cls-21" transform="matrix(1, 0, 0, 1, -1.63, -36.04)">
        <path id="路径_23047-2" data-name="路径 23047" class="cls-11" d="M816.959,194.721a3.762,3.762,0,1,1-4.36-3.053A3.763,3.763,0,0,1,816.959,194.721Z" transform="translate(-712.11 -59.41)"/>
      </g>
      <g class="cls-20" transform="matrix(1, 0, 0, 1, -1.63, -36.04)">
        <path id="路径_23048-2" data-name="路径 23048" class="cls-11" d="M839.525,194.721a3.762,3.762,0,1,1-4.361-3.053A3.762,3.762,0,0,1,839.525,194.721Z" transform="translate(-713.96 -59.41)"/>
      </g>
      <g class="cls-19" transform="matrix(1, 0, 0, 1, -1.63, -36.04)">
        <path id="路径_23049-2" data-name="路径 23049" class="cls-11" d="M862.092,194.721a3.763,3.763,0,1,1-4.361-3.053A3.764,3.764,0,0,1,862.092,194.721Z" transform="translate(-715.82 -59.41)"/>
      </g>
      <g class="cls-18" transform="matrix(1, 0, 0, 1, -1.63, -36.04)">
        <path id="路径_23050-2" data-name="路径 23050" class="cls-11" d="M884.658,194.721a3.763,3.763,0,1,1-4.361-3.053A3.763,3.763,0,0,1,884.658,194.721Z" transform="translate(-717.68 -59.41)"/>
      </g>
      <g class="cls-17" transform="matrix(1, 0, 0, 1, -1.63, -36.04)">
        <path id="路径_23051-2" data-name="路径 23051" class="cls-11" d="M907.223,194.721a3.762,3.762,0,1,1-4.359-3.053A3.762,3.762,0,0,1,907.223,194.721Z" transform="translate(-719.54 -59.41)"/>
      </g>
      <g class="cls-16" transform="matrix(1, 0, 0, 1, -1.63, -36.04)">
        <path id="路径_23052-2" data-name="路径 23052" class="cls-11" d="M929.789,194.721a3.762,3.762,0,1,1-4.361-3.053A3.763,3.763,0,0,1,929.789,194.721Z" transform="translate(-721.39 -59.41)"/>
      </g>
      <g class="cls-15" transform="matrix(1, 0, 0, 1, -1.63, -36.04)">
        <path id="路径_23053-2" data-name="路径 23053" class="cls-11" d="M952.355,194.721a3.762,3.762,0,1,1-4.361-3.053A3.762,3.762,0,0,1,952.355,194.721Z" transform="translate(-723.25 -59.41)"/>
      </g>
      <g class="cls-14" transform="matrix(1, 0, 0, 1, -1.63, -36.04)">
        <path id="路径_23054-2" data-name="路径 23054" class="cls-11" d="M974.922,194.721a3.762,3.762,0,1,1-4.361-3.053A3.764,3.764,0,0,1,974.922,194.721Z" transform="translate(-725.11 -59.41)"/>
      </g>
    </g>
    <path id="矩形_15966" data-name="矩形 15966" class="cls-12" d="M10.073,0H130.042a10.072,10.072,0,0,1,10.072,10.072V33.831A10.073,10.073,0,0,1,130.041,43.9H10.072A10.072,10.072,0,0,1,0,33.832V10.073A10.073,10.073,0,0,1,10.073,0Z" transform="translate(117.5 636.605)"/>
    <path id="路径_23055" data-name="路径 23055" class="cls-13" d="M3.239,0H124.865a3.24,3.24,0,0,1,3.24,3.24V28.656a3.239,3.239,0,0,1-3.239,3.239H3.239A3.239,3.239,0,0,1,0,28.656V3.239A3.239,3.239,0,0,1,3.239,0Z" transform="translate(123.5 642.61)"/>
  </g>
</svg>
