<svg xmlns="http://www.w3.org/2000/svg" xmlns:xlink="http://www.w3.org/1999/xlink" width="10" height="10" viewBox="0 0 10 10">
  <defs>
    <style>
      .cls-1, .cls-3 {
        fill: #6f5ec1;
      }

      .cls-1 {
        stroke: #707070;
      }

      .cls-2 {
        clip-path: url(#clip-path);
      }
    </style>
    <clipPath id="clip-path">
      <rect id="矩形_67" data-name="矩形 67" class="cls-1" width="10" height="10" transform="translate(869 510)"/>
    </clipPath>
  </defs>
  <g id="蒙版组_9" data-name="蒙版组 9" class="cls-2" transform="translate(-869 -510)">
    <g id="组_137" data-name="组 137" transform="translate(637 119)">
      <path id="路径_374" data-name="路径 374" class="cls-3" d="M127.122,294.494a.554.554,0,0,1,.475-.227c.168-.03.326.109.456.227l4.031,4.3a.586.586,0,0,1,0,.791.507.507,0,0,1-.745,0l-3.752-4.094-3.761,4.094a.507.507,0,0,1-.745,0,.586.586,0,0,1,0-.791Z" transform="translate(364.238 692.749) rotate(180)"/>
    </g>
  </g>
</svg>
