<svg xmlns="http://www.w3.org/2000/svg" width="12.711" height="12.711" viewBox="0 0 12.711 12.711">
  <defs>
    <style>
      .cls-1 {
        fill: #4b0a67;
      }
    </style>
  </defs>
  <path id="路径_14613" data-name="路径 14613" class="cls-1" d="M129.987,137.243h7.823a1.379,1.379,0,0,0,1.4-1.412v-1.412a.466.466,0,1,1,.932,0v1.412a2.319,2.319,0,0,1-2.328,2.354h-8.195l1.723,1.742a.459.459,0,0,1,0,.659.446.446,0,0,1-.652,0l-2.282-2.307a.512.512,0,0,1-.139-.329.43.43,0,0,1,.139-.33l2.282-2.307a.446.446,0,0,1,.651,0,.459.459,0,0,1,0,.659Zm9.359-6.12H130.36a1.379,1.379,0,0,0-1.4,1.412v1.413a.466.466,0,1,1-.931,0v-1.413a2.317,2.317,0,0,1,2.328-2.353h8.66l-1.351-1.365a.459.459,0,0,1,0-.659.446.446,0,0,1,.653,0l2.281,2.354a.512.512,0,0,1,.14.329.43.43,0,0,1-.14.33l-2.281,2.305a.446.446,0,0,1-.652,0,.459.459,0,0,1,0-.659l1.676-1.695Z" transform="translate(-128.032 -128.016)"/>
</svg>
