<svg xmlns="http://www.w3.org/2000/svg" width="21.282" height="21.349" viewBox="0 0 21.282 21.349">
  <defs>
    <style>
      .cls-1 {
        fill: #5d2a74;
      }
    </style>
  </defs>
  <path id="路径_51995" data-name="路径 51995" class="cls-1" d="M84.328,77.5H65.042a1.1,1.1,0,0,1-1-1.186V57.332a1.013,1.013,0,1,1,2,0V72.355h0v2.768H84.328a1.2,1.2,0,0,1,0,2.372ZM82,73.937h-2a1.1,1.1,0,0,1-1-1.186v-8.3a1.1,1.1,0,0,1,1-1.186h2a1.1,1.1,0,0,1,1,1.186v8.3A1.1,1.1,0,0,1,82,73.937Zm-5.653,0h-2a1.1,1.1,0,0,1-1-1.186V59.7a1.1,1.1,0,0,1,1-1.186h2a1.1,1.1,0,0,1,1,1.186V72.751A1.1,1.1,0,0,1,76.348,73.937Zm-5.653,0h-2a1.1,1.1,0,0,1-1-1.186V70.379a1.1,1.1,0,0,1,1-1.186h2a1.1,1.1,0,0,1,1,1.186v2.372A1.1,1.1,0,0,1,70.695,73.937Z" transform="translate(-64.044 -56.146)"/>
</svg>
