<svg xmlns="http://www.w3.org/2000/svg" width="19.849" height="22.52" viewBox="0 0 19.849 22.52">
  <defs>
    <style>
      .cls-1 {
        fill: #5d2a74;
      }
    </style>
  </defs>
  <path id="路径_51973" data-name="路径 51973" class="cls-1" d="M157.065,99.76c0-2.508-4.447-4.528-9.925-4.528s-9.925,2.034-9.925,4.528v12.867c0,2.915,4.271,5.125,9.925,5.125s9.925-2.2,9.925-5.125V99.76Zm-9.721-2.942c4,0,7.24,1.18,7.24,2.63s-3.24,2.63-7.24,2.63-7.254-1.18-7.254-2.63S143.344,96.818,147.344,96.818Zm-.2,18.751c-4.732,0-7.755-1.749-7.755-2.956v-1.18a14.877,14.877,0,0,0,7.755,1.857,14.713,14.713,0,0,0,7.755-1.857v1.18C154.9,113.82,151.872,115.569,147.141,115.569Zm0-4.447c-4.732,0-7.755-1.749-7.755-2.956v-1.152a17.118,17.118,0,0,0,15.51,0v1.152C154.9,109.387,151.872,111.122,147.141,111.122Zm0-4.42c-4.732,0-7.755-1.749-7.755-2.956V102.58a18.457,18.457,0,0,0,15.51,0v1.166C154.9,104.953,151.872,106.7,147.141,106.7Z" transform="translate(-137.216 -95.232)"/>
</svg>
