<svg xmlns="http://www.w3.org/2000/svg" xmlns:xlink="http://www.w3.org/1999/xlink" width="27.597" height="27.526" viewBox="0 0 27.597 27.526">
  <defs>
    <style>
      .cls-1, .cls-2, .cls-3, .cls-4, .cls-6, .cls-7, .cls-8, .cls-9 {
        fill: none;
      }

      .cls-1 {
        stroke: #fb04cd;
      }

      .cls-1, .cls-2, .cls-3, .cls-4 {
        stroke-width: 20px;
      }

      .cls-2 {
        stroke: #06edff;
      }

      .cls-3 {
        stroke: #ff3a6e;
      }

      .cls-4 {
        stroke: #ffcf00;
      }

      .cls-5 {
        stroke: none;
      }

      .cls-6 {
        clip-path: url(#clip);
      }

      .cls-7 {
        clip-path: url(#clip-2);
      }

      .cls-8 {
        clip-path: url(#clip-3);
      }

      .cls-9 {
        clip-path: url(#clip-4);
      }
    </style>
    <clipPath id="clip">
      <use xlink:href="#fill"/>
    </clipPath>
    <clipPath id="clip-2">
      <use xlink:href="#fill-2"/>
    </clipPath>
    <clipPath id="clip-3">
      <use xlink:href="#fill-3"/>
    </clipPath>
    <clipPath id="clip-4">
      <use xlink:href="#fill-4"/>
    </clipPath>
  </defs>
  <g id="组_49650" data-name="组 49650" transform="translate(57 -253)">
    <g id="组_49641" data-name="组 49641" transform="translate(-57 253)">
      <g id="矩形_18355" data-name="矩形 18355" class="cls-1" transform="translate(0.001 2.67) rotate(-45)">
        <rect id="fill" class="cls-5" width="3.776" height="14.159" rx="1.888"/>
        <path class="cls-6" d="M0,4.1590166091918945h3.775724411010742M10,0v14.159016609191895M3.775724411010742,10h-3.775724411010742M-6.224275588989258,14.159016609191895v-14.159016609191895"/>
      </g>
      <g id="矩形_18356" data-name="矩形 18356" class="cls-2" transform="translate(24.926 0.308) rotate(45)">
        <rect id="fill-2" class="cls-5" width="3.776" height="14.159" rx="1.888"/>
        <path class="cls-7" d="M0,4.159026145935059h3.7757527828216553M10,0v14.159026145935059M3.7757527828216553,10h-3.7757527828216553M-6.224247217178345,14.159026145935059v-14.159026145935059"/>
      </g>
      <g id="矩形_18357" data-name="矩形 18357" class="cls-3" transform="translate(14.915 17.514) rotate(-45)">
        <rect id="fill-3" class="cls-5" width="3.776" height="14.159" rx="1.888"/>
        <path class="cls-8" d="M0,4.1590166091918945h3.775724411010742M10,0v14.159016609191895M3.775724411010742,10h-3.775724411010742M-6.224275588989258,14.159016609191895v-14.159016609191895"/>
      </g>
      <g id="矩形_18358" data-name="矩形 18358" class="cls-4" transform="translate(10.012 14.845) rotate(45)">
        <rect id="fill-4" class="cls-5" width="3.776" height="14.159" rx="1.888"/>
        <path class="cls-9" d="M0,4.159026145935059h3.7757527828216553M10,0v14.159026145935059M3.7757527828216553,10h-3.7757527828216553M-6.224247217178345,14.159026145935059v-14.159026145935059"/>
      </g>
    </g>
  </g>
</svg>
