<svg xmlns="http://www.w3.org/2000/svg" xmlns:xlink="http://www.w3.org/1999/xlink" width="295" height="100" viewBox="0 0 295 100">
  <defs>
    <style>
      .cls-1, .cls-28, .cls-5 {
        fill: #fff;
      }

      .cls-1 {
        stroke: #707070;
      }

      .cls-13, .cls-2 {
        fill: none;
      }

      .cls-14, .cls-3 {
        fill: #ffed00;
      }

      .cls-4 {
        clip-path: url(#clip-path);
      }

      .cls-6 {
        fill: #e6332a;
      }

      .cls-7 {
        fill: #be1622;
      }

      .cls-8 {
        fill: #f9b233;
        opacity: 0.46;
        mix-blend-mode: screen;
      }

      .cls-22, .cls-8 {
        isolation: isolate;
      }

      .cls-9 {
        fill: #0694b9;
      }

      .cls-10 {
        fill: #008d36;
      }

      .cls-11 {
        fill: #706f6f;
      }

      .cls-11, .cls-14 {
        opacity: 0.57;
      }

      .cls-12 {
        clip-path: url(#clip-path-2);
      }

      .cls-13 {
        stroke: #ffed00;
        stroke-linecap: round;
        stroke-width: 3px;
        stroke-dasharray: 12;
      }

      .cls-13, .cls-26, .cls-27 {
        stroke-miterlimit: 10;
      }

      .cls-15 {
        clip-path: url(#clip-path-3);
      }

      .cls-16 {
        fill: #ededed;
      }

      .cls-17 {
        fill: #e8e8e8;
      }

      .cls-18 {
        fill: #f6f6f6;
      }

      .cls-19 {
        fill: #9d9d9c;
      }

      .cls-20, .cls-22, .cls-23 {
        fill: #dadada;
      }

      .cls-21 {
        clip-path: url(#clip-path-4);
      }

      .cls-22, .cls-23 {
        opacity: 0.2;
      }

      .cls-22 {
        mix-blend-mode: multiply;
      }

      .cls-24 {
        clip-path: url(#clip-path-5);
      }

      .cls-25 {
        fill: #e30613;
      }

      .cls-26, .cls-27 {
        fill: #b2b2b2;
        stroke: #b2b2b2;
      }

      .cls-26 {
        stroke-width: 0.894px;
        opacity: 0.3;
      }

      .cls-27 {
        stroke-width: 0.853px;
      }

      .cls-28 {
        opacity: 0.85;
      }
    </style>
    <clipPath id="clip-path">
      <rect id="矩形_4" data-name="矩形 4" class="cls-1" width="295" height="100" transform="translate(64 142.56)"/>
    </clipPath>
    <clipPath id="clip-path-2">
      <circle id="椭圆_7" data-name="椭圆 7" class="cls-2" cx="4.091" cy="4.091" r="4.091"/>
    </clipPath>
    <clipPath id="clip-path-3">
      <path id="路径_331" data-name="路径 331" class="cls-3" d="M979.185,287.68a1.588,1.588,0,1,1-2.066-.88A1.588,1.588,0,0,1,979.185,287.68Z" transform="translate(-976.124 -286.685)"/>
    </clipPath>
    <clipPath id="clip-path-4">
      <path id="路径_344" data-name="路径 344" class="cls-2" d="M624.945,319.812a2.81,2.81,0,1,1,3.9-.79A2.81,2.81,0,0,1,624.945,319.812Z" transform="translate(-623.687 -314.658)"/>
    </clipPath>
    <clipPath id="clip-path-5">
      <path id="路径_356" data-name="路径 356" class="cls-2" d="M601.986,295.4a2.872,2.872,0,1,1,4.059-.124A2.87,2.87,0,0,1,601.986,295.4Z" transform="translate(-601.082 -290.441)"/>
    </clipPath>
  </defs>
  <g id="蒙版组_3" data-name="蒙版组 3" class="cls-4" transform="translate(-64 -142.56)">
    <g id="组_120" data-name="组 120" transform="translate(64 142.947)">
      <path id="路径_287" data-name="路径 287" class="cls-5" d="M847.732,161.375a1.339,1.339,0,1,1-1.339-1.339A1.338,1.338,0,0,1,847.732,161.375Z" transform="translate(-741.617 -140.127)"/>
      <path id="路径_288" data-name="路径 288" class="cls-5" d="M843.872,322.085a1.339,1.339,0,1,1-1.339-1.339A1.339,1.339,0,0,1,843.872,322.085Z" transform="translate(-739.132 -243.6)"/>
      <path id="路径_289" data-name="路径 289" class="cls-5" d="M1058.566,264.225a.556.556,0,1,1-.556-.556A.556.556,0,0,1,1058.566,264.225Z" transform="translate(-878.371 -206.851)"/>
      <path id="路径_290" data-name="路径 290" class="cls-5" d="M1063.351,381.9a.555.555,0,1,1-.555-.555A.555.555,0,0,1,1063.351,381.9Z" transform="translate(-881.452 -282.617)"/>
      <path id="路径_291" data-name="路径 291" class="cls-5" d="M876.464,261.106a.556.556,0,1,1-.555-.556A.555.555,0,0,1,876.464,261.106Z" transform="translate(-761.124 -204.843)"/>
      <path id="路径_292" data-name="路径 292" class="cls-5" d="M940.675,170.253a.555.555,0,1,1-.556-.555A.555.555,0,0,1,940.675,170.253Z" transform="translate(-802.467 -146.347)"/>
      <g id="组_107" data-name="组 107" transform="translate(0 0)">
        <g id="组_94" data-name="组 94" transform="translate(0 0)">
          <circle id="椭圆_3" data-name="椭圆 3" class="cls-6" cx="22.972" cy="22.972" r="22.972" transform="matrix(0.316, -0.949, 0.949, 0.316, 0, 43.596)"/>
          <circle id="椭圆_4" data-name="椭圆 4" class="cls-7" cx="5.433" cy="5.433" r="5.433" transform="translate(8.833 22.435)"/>
          <path id="路径_293" data-name="路径 293" class="cls-7" d="M635.226,183.561a1.179,1.179,0,1,1-1.178-1.179A1.178,1.178,0,0,1,635.226,183.561Z" transform="translate(-605.001 -154.514)"/>
          <path id="路径_294" data-name="路径 294" class="cls-7" d="M651.509,132.753a.828.828,0,1,1-.828-.828A.828.828,0,0,1,651.509,132.753Z" transform="translate(-615.937 -122.027)"/>
          <circle id="椭圆_5" data-name="椭圆 5" class="cls-7" cx="1.179" cy="1.179" r="1.179" transform="translate(17.996 11.553)"/>
          <path id="路径_295" data-name="路径 295" class="cls-7" d="M603.773,227.144a1.7,1.7,0,1,1-1.7-1.7A1.7,1.7,0,0,1,603.773,227.144Z" transform="translate(-584.076 -182.238)"/>
          <path id="路径_296" data-name="路径 296" class="cls-7" d="M662.416,147.606a2.907,2.907,0,1,1-2.907-2.907A2.907,2.907,0,0,1,662.416,147.606Z" transform="translate(-620.281 -130.252)"/>
          <circle id="椭圆_6" data-name="椭圆 6" class="cls-7" cx="6.897" cy="6.897" r="6.897" transform="translate(25.433 33.734)"/>
          <path id="路径_297" data-name="路径 297" class="cls-8" d="M611.251,168.742a27,27,0,0,1-25.678,4.61c-.2.011.168.243.262.359a22.865,22.865,0,1,0,35.508-28.818c-.1-.119-.2-.22-.3-.337A27,27,0,0,1,611.251,168.742Z" transform="translate(-574.511 -130.159)"/>
        </g>
        <g id="组_101" data-name="组 101" transform="translate(192.93 16.147)">
          <g id="组_97" data-name="组 97" transform="translate(0 3.589)">
            <g id="组_96" data-name="组 96">
              <path id="路径_298" data-name="路径 298" class="cls-9" d="M1011.213,196.768a19.195,19.195,0,1,1-19.179-19.179A19.179,19.179,0,0,1,1011.213,196.768Z" transform="translate(-972.855 -177.589)"/>
              <g id="组_95" data-name="组 95" transform="translate(0.019 1.334)">
                <path id="路径_299" data-name="路径 299" class="cls-10" d="M996.947,216.61a11.774,11.774,0,0,1-3.629-3.266c-2.422-4.01-3.49-6.7-6.064-6.886s-2.138-1.307-3.552-3.12-6.856,1.889-10.815-6.11a19.418,19.418,0,0,1,11.267-16.65s-3.4,2.076,1.131,5.414c4.032,2.968,3.053,8.228-3.541,10.137-4.437,1.284-4.066,8.228,4.429,3.287,5.813-3.381,11.384-2.435,10.469,3.67s-.229,11.175,1.721,13.091" transform="translate(-972.888 -180.218)"/>
                <path id="路径_300" data-name="路径 300" class="cls-10" d="M1022.666,188.515a7.356,7.356,0,0,1-6.258,1.544,4.367,4.367,0,0,0-5.293,4.274c.026,2.719,2.945,4.394,5.789,3.339s5.315,1.288,6.138,4.536c.662,2.611,4.109,4.194,4.109,4.194S1030.146,196.474,1022.666,188.515Z" transform="translate(-989.445 -183.656)"/>
                <path id="路径_301" data-name="路径 301" class="cls-10" d="M1018.453,179.943a1.123,1.123,0,0,0-.805,1.292c.219.984.921.552-.1,2.409-.7,1.273,1.628,1.955,1.885.42a1.322,1.322,0,0,1,2.606-.1c.24.7,1.669.824,2.528-.034A19.826,19.826,0,0,0,1018.453,179.943Z" transform="translate(-992.174 -179.943)"/>
              </g>
            </g>
            <path id="路径_302" data-name="路径 302" class="cls-8" d="M983,202.607a22.544,22.544,0,0,1,1.37-21.739c-.113.051-.23.088-.343.141a19.091,19.091,0,1,0,16.3,34.525c.116-.054.22-.122.334-.179A22.539,22.539,0,0,1,983,202.607Z" transform="translate(-972.952 -179.009)"/>
          </g>
          <g id="组_100" data-name="组 100" transform="translate(38.135)">
            <path id="路径_303" data-name="路径 303" class="cls-5" d="M1048.338,175.349a4.091,4.091,0,1,1-4.091-4.091A4.091,4.091,0,0,1,1048.338,175.349Z" transform="translate(-1040.14 -171.258)"/>
            <path id="路径_304" data-name="路径 304" class="cls-11" d="M1047.754,172.443a.909.909,0,1,1-.91-.909A.909.909,0,0,1,1047.754,172.443Z" transform="translate(-1042.643 -171.377)"/>
            <path id="路径_305" data-name="路径 305" class="cls-11" d="M1051.755,177.592a.756.756,0,1,1-.756-.756A.757.757,0,0,1,1051.755,177.592Z" transform="translate(-1044.509 -173.674)"/>
            <path id="路径_306" data-name="路径 306" class="cls-11" d="M1044.846,176.623a.071.071,0,1,1-.071-.07A.071.071,0,0,1,1044.846,176.623Z" transform="translate(-1042.111 -173.551)"/>
            <path id="路径_307" data-name="路径 307" class="cls-11" d="M1044.5,173.253a.129.129,0,1,1-.129-.129A.129.129,0,0,1,1044.5,173.253Z" transform="translate(-1041.91 -172.066)"/>
            <path id="路径_308" data-name="路径 308" class="cls-11" d="M1041.988,177.431a.118.118,0,1,1-.118-.118A.118.118,0,0,1,1041.988,177.431Z" transform="translate(-1040.832 -173.88)"/>
            <path id="路径_309" data-name="路径 309" class="cls-11" d="M1053.733,180.763a.059.059,0,1,1-.059-.059A.058.058,0,0,1,1053.733,180.763Z" transform="translate(-1045.97 -175.349)"/>
            <path id="路径_310" data-name="路径 310" class="cls-11" d="M1048.96,183.54a.129.129,0,1,1-.129-.129A.129.129,0,0,1,1048.96,183.54Z" transform="translate(-1043.842 -176.522)"/>
            <path id="路径_311" data-name="路径 311" class="cls-11" d="M1050.6,173.689a.129.129,0,1,1-.129-.129A.129.129,0,0,1,1050.6,173.689Z" transform="translate(-1044.551 -172.255)"/>
            <path id="路径_312" data-name="路径 312" class="cls-11" d="M1048.194,177.646a.053.053,0,1,1-.053-.053A.053.053,0,0,1,1048.194,177.646Z" transform="translate(-1043.576 -174.002)"/>
            <path id="路径_313" data-name="路径 313" class="cls-11" d="M1048.422,180.2a.053.053,0,1,1-.105,0,.053.053,0,1,1,.105,0Z" transform="translate(-1043.676 -175.107)"/>
            <path id="路径_314" data-name="路径 314" class="cls-11" d="M1046.971,182.333a.053.053,0,1,1-.053-.053A.053.053,0,0,1,1046.971,182.333Z" transform="translate(-1043.046 -176.032)"/>
            <g id="组_99" data-name="组 99">
              <g id="组_98" data-name="组 98" class="cls-12">
                <path id="路径_315" data-name="路径 315" class="cls-11" d="M1043.931,181.15a1.348,1.348,0,1,1-1.348-1.348A1.348,1.348,0,0,1,1043.931,181.15Z" transform="translate(-1040.608 -174.958)"/>
              </g>
            </g>
          </g>
        </g>
        <g id="组_105" data-name="组 105" transform="translate(133.365 58.759)">
          <path id="路径_316" data-name="路径 316" class="cls-13" d="M859.553,271.246a53.327,53.327,0,0,1,40.721,4.519" transform="translate(-859.553 -269.117)"/>
          <g id="组_104" data-name="组 104" transform="translate(41.517 6.255)">
            <path id="路径_317" data-name="路径 317" class="cls-3" d="M979.2,287.674a1.588,1.588,0,1,1-2.066-.88A1.588,1.588,0,0,1,979.2,287.674Z" transform="translate(-976.134 -286.679)"/>
            <path id="路径_318" data-name="路径 318" class="cls-14" d="M979.152,287.272a.353.353,0,1,1-.459-.2A.353.353,0,0,1,979.152,287.272Z" transform="translate(-977.636 -286.918)"/>
            <path id="路径_319" data-name="路径 319" class="cls-14" d="M982.68,289.354a.294.294,0,1,1-.382-.162A.294.294,0,0,1,982.68,289.354Z" transform="translate(-979.981 -288.283)"/>
            <path id="路径_320" data-name="路径 320" class="cls-14" d="M978.7,290.636a.027.027,0,1,1-.036-.015A.027.027,0,0,1,978.7,290.636Z" transform="translate(-977.751 -289.216)"/>
            <path id="路径_321" data-name="路径 321" class="cls-14" d="M977.709,288.764a.05.05,0,1,1-.065-.028A.05.05,0,0,1,977.709,288.764Z" transform="translate(-977.083 -288.001)"/>
            <path id="路径_322" data-name="路径 322" class="cls-14" d="M977.237,291.742a.046.046,0,1,1-.059-.025A.045.045,0,0,1,977.237,291.742Z" transform="translate(-976.784 -289.92)"/>
            <path id="路径_323" data-name="路径 323" class="cls-14" d="M984.755,290.962a.023.023,0,0,1-.013.03.023.023,0,0,1-.03-.013.023.023,0,0,1,.013-.03A.023.023,0,0,1,984.755,290.962Z" transform="translate(-981.653 -289.427)"/>
            <path id="路径_324" data-name="路径 324" class="cls-14" d="M982.639,293.63a.05.05,0,1,1-.065-.028A.05.05,0,0,1,982.639,293.63Z" transform="translate(-980.257 -291.134)"/>
            <path id="路径_325" data-name="路径 325" class="cls-14" d="M981.3,287.606a.05.05,0,1,1-.065-.028A.05.05,0,0,1,981.3,287.606Z" transform="translate(-979.397 -287.256)"/>
            <path id="路径_326" data-name="路径 326" class="cls-14" d="M980.863,290.456a.021.021,0,1,1-.027-.011A.021.021,0,0,1,980.863,290.456Z" transform="translate(-979.15 -289.102)"/>
            <path id="路径_327" data-name="路径 327" class="cls-14" d="M981.583,291.865a.021.021,0,0,1-.011.027.021.021,0,1,1-.015-.038A.021.021,0,0,1,981.583,291.865Z" transform="translate(-979.613 -290.01)"/>
            <path id="路径_328" data-name="路径 328" class="cls-14" d="M981.244,293.425a.02.02,0,1,1-.038.015.02.02,0,1,1,.038-.015Z" transform="translate(-979.395 -291.014)"/>
            <g id="组_103" data-name="组 103" transform="translate(0 0.002)">
              <path id="路径_329" data-name="路径 329" class="cls-3" d="M979.185,287.68a1.588,1.588,0,1,1-2.066-.88A1.588,1.588,0,0,1,979.185,287.68Z" transform="translate(-976.124 -286.685)"/>
              <g id="组_102" data-name="组 102" class="cls-15">
                <path id="路径_330" data-name="路径 330" class="cls-14" d="M978.839,292.989a.523.523,0,1,1-.681-.29A.523.523,0,0,1,978.839,292.989Z" transform="translate(-977.223 -290.533)"/>
              </g>
            </g>
          </g>
        </g>
        <g id="组_106" data-name="组 106" transform="translate(224.648 40.363)">
          <circle id="椭圆_8" data-name="椭圆 8" class="cls-16" cx="3.131" cy="3.131" r="3.131" transform="translate(42.925 38.452)"/>
          <rect id="矩形_5" data-name="矩形 5" class="cls-17" width="7.715" height="7.568" transform="matrix(0.852, -0.523, 0.523, 0.852, 34.908, 31.698)"/>
          <rect id="矩形_6" data-name="矩形 6" class="cls-5" width="3.841" height="1.783" transform="matrix(0.852, -0.523, 0.523, 0.852, 40.01, 19.944)"/>
          <rect id="矩形_7" data-name="矩形 7" class="cls-18" width="14.108" height="18.635" rx="2.276" transform="translate(23.915 19.596) rotate(-31.546)"/>
          <rect id="矩形_8" data-name="矩形 8" class="cls-18" width="14.108" height="8.361" rx="2.033" transform="matrix(0.852, -0.523, 0.523, 0.852, 35.41, 38.321)"/>
          <path id="矩形_9" data-name="矩形 9" class="cls-5" d="M1.794,0H24.933a1.794,1.794,0,0,1,1.794,1.794v9.254a1.793,1.793,0,0,1-1.793,1.793H1.793A1.793,1.793,0,0,1,0,11.047V1.794A1.794,1.794,0,0,1,1.794,0Z" transform="matrix(0.852, -0.523, 0.523, 0.852, 40.857, 13.983)"/>
          <path id="矩形_10" data-name="矩形 10" class="cls-5" d="M1.793,0H24.933a1.793,1.793,0,0,1,1.793,1.793v9.254a1.793,1.793,0,0,1-1.793,1.793H1.794A1.794,1.794,0,0,1,0,11.047V1.793A1.793,1.793,0,0,1,1.793,0Z" transform="matrix(0.852, -0.523, 0.523, 0.852, 0, 39.065)"/>
          <rect id="矩形_11" data-name="矩形 11" class="cls-5" width="3.841" height="1.783" transform="matrix(0.852, -0.523, 0.523, 0.852, 25.203, 29.034)"/>
          <rect id="矩形_12" data-name="矩形 12" class="cls-16" width="0.551" height="11.083" transform="matrix(0.852, -0.523, 0.523, 0.852, 2.184, 38.783)"/>
          <rect id="矩形_13" data-name="矩形 13" class="cls-16" width="0.551" height="11.083" transform="matrix(0.852, -0.523, 0.523, 0.852, 5.053, 37.021)"/>
          <rect id="矩形_14" data-name="矩形 14" class="cls-16" width="0.551" height="11.083" transform="translate(7.924 35.259) rotate(-31.543)"/>
          <rect id="矩形_15" data-name="矩形 15" class="cls-16" width="0.551" height="11.083" transform="translate(10.794 33.497) rotate(-31.539)"/>
          <rect id="矩形_16" data-name="矩形 16" class="cls-16" width="0.551" height="11.083" transform="matrix(0.852, -0.523, 0.523, 0.852, 13.663, 31.735)"/>
          <rect id="矩形_17" data-name="矩形 17" class="cls-16" width="0.551" height="11.083" transform="matrix(0.852, -0.523, 0.523, 0.852, 16.533, 29.973)"/>
          <rect id="矩形_18" data-name="矩形 18" class="cls-16" width="0.551" height="11.083" transform="translate(19.404 28.211) rotate(-31.543)"/>
          <rect id="矩形_19" data-name="矩形 19" class="cls-16" width="0.551" height="11.083" transform="translate(43.873 13.19) rotate(-31.543)"/>
          <rect id="矩形_20" data-name="矩形 20" class="cls-16" width="0.551" height="11.083" transform="translate(46.743 11.428) rotate(-31.543)"/>
          <rect id="矩形_21" data-name="矩形 21" class="cls-16" width="0.551" height="11.083" transform="translate(49.612 9.666) rotate(-31.549)"/>
          <rect id="矩形_22" data-name="矩形 22" class="cls-16" width="0.551" height="11.083" transform="translate(52.483 7.904) rotate(-31.543)"/>
          <rect id="矩形_23" data-name="矩形 23" class="cls-16" width="0.551" height="11.083" transform="translate(55.353 6.142) rotate(-31.543)"/>
          <rect id="矩形_24" data-name="矩形 24" class="cls-16" width="0.551" height="11.083" transform="matrix(0.852, -0.523, 0.523, 0.852, 58.222, 4.381)"/>
          <rect id="矩形_25" data-name="矩形 25" class="cls-16" width="0.551" height="11.083" transform="matrix(0.852, -0.523, 0.523, 0.852, 61.092, 2.619)"/>
          <rect id="矩形_26" data-name="矩形 26" class="cls-16" width="1.323" height="5.673" transform="translate(26.667 11.465) rotate(-31.546)"/>
          <path id="路径_332" data-name="路径 332" class="cls-16" d="M1019.952,303.135a1.194,1.194,0,1,1-1.642-.393A1.194,1.194,0,0,1,1019.952,303.135Z" transform="translate(-991.4 -292.145)"/>
        </g>
      </g>
      <g id="组_119" data-name="组 119" transform="translate(30.862 22.436)">
        <g id="组_118" data-name="组 118" transform="translate(0 0)">
          <g id="组_108" data-name="组 108" transform="translate(31.609 15.544)">
            <path id="路径_333" data-name="路径 333" class="cls-19" d="M706.679,237.419a8.638,8.638,0,0,1-10.909,5.5h0a8.637,8.637,0,0,1-5.5-10.908l5.044-15.3a8.638,8.638,0,0,1,10.909-5.5h0a8.638,8.638,0,0,1,5.5,10.909Z" transform="translate(-689.834 -210.772)"/>
            <path id="路径_334" data-name="路径 334" class="cls-9" d="M714.962,240.149a8.639,8.639,0,0,1-10.909,5.5h0a8.638,8.638,0,0,1-5.5-10.908l5.045-15.3a8.638,8.638,0,0,1,10.908-5.5h0a8.638,8.638,0,0,1,5.5,10.908Z" transform="translate(-695.167 -212.53)"/>
          </g>
          <g id="组_112" data-name="组 112" transform="translate(8.051 44.364)">
            <path id="路径_335" data-name="路径 335" class="cls-20" d="M664.456,313.208a47.475,47.475,0,0,1-7.149-4.185l2.8-4.007c7.332,5.123,13.565,6.93,18.525,5.372,5.732-1.8,7.915-7.578,7.936-7.636l4.588,1.686c-.121.33-3.059,8.1-11.06,10.614C675.462,316.506,670.223,315.885,664.456,313.208Z" transform="translate(-645.333 -298.813)"/>
            <g id="组_111" data-name="组 111">
              <rect id="矩形_27" data-name="矩形 27" class="cls-5" width="7.761" height="7.196" transform="translate(4.724 8.096) rotate(-56.468)"/>
              <path id="路径_336" data-name="路径 336" class="cls-5" d="M625.056,319.8a2.81,2.81,0,1,1,3.9-.79A2.81,2.81,0,0,1,625.056,319.8Z" transform="translate(-623.758 -306.475)"/>
              <path id="路径_337" data-name="路径 337" class="cls-5" d="M636.215,296.194l-3.709-2.458a1.006,1.006,0,1,1-1.589.32l-5.421,8.181,4.666,3.092Z" transform="translate(-624.851 -293.009)"/>
              <path id="路径_338" data-name="路径 338" class="cls-5" d="M640.905,294.841a1.006,1.006,0,0,0,1.234-1.581,1.089,1.089,0,0,0-.121-.1.975.975,0,0,0-.138-.073,1.031,1.031,0,0,0-1.258.357,1.056,1.056,0,0,0-.072.135A1.007,1.007,0,0,0,640.905,294.841Z" transform="translate(-634.484 -292.533)"/>
              <path id="路径_339" data-name="路径 339" class="cls-9" d="M651.85,312.637l4.508-6.8h0c.791.523,1.175,1.335.86,1.81l-3.365,5.078c-.316.476-1.212.438-2-.086Z" transform="translate(-641.82 -300.799)"/>
              <path id="路径_340" data-name="路径 340" class="cls-20" d="M631.856,299.316a.522.522,0,0,1-.136-.725l3.245-4.9a.522.522,0,0,1,.721-.157h0a.522.522,0,0,1,.135.725l-3.244,4.9a.522.522,0,0,1-.72.158Z" transform="translate(-628.801 -292.828)"/>
              <path id="路径_341" data-name="路径 341" class="cls-9" d="M633.024,297.555a.521.521,0,0,1-.136-.724l3.244-4.895a.521.521,0,0,1,.72-.158h0a.522.522,0,0,1,.136.725l-3.244,4.9a.521.521,0,0,1-.72.157Z" transform="translate(-629.553 -291.694)"/>
              <path id="路径_342" data-name="路径 342" class="cls-9" d="M624.633,310.214a.522.522,0,0,1-.136-.725l3.245-4.9a.521.521,0,0,1,.721-.157h0a.522.522,0,0,1,.135.724l-3.244,4.9a.522.522,0,0,1-.721.157Z" transform="translate(-624.151 -299.845)"/>
              <g id="组_110" data-name="组 110" transform="translate(0 8.179)">
                <g id="组_109" data-name="组 109" class="cls-21">
                  <path id="路径_343" data-name="路径 343" class="cls-9" d="M616.434,322.477a.529.529,0,0,1-.149-.733l3.245-4.9a.53.53,0,0,1,.734-.149h0a.529.529,0,0,1,.148.733l-3.244,4.9a.53.53,0,0,1-.734.149Z" transform="translate(-618.865 -315.916)"/>
                </g>
              </g>
              <path id="路径_345" data-name="路径 345" class="cls-20" d="M645.83,298.51a1.066,1.066,0,0,0-1.478.3l-1.663,2.509a1.066,1.066,0,0,0,.3,1.478h0a1.066,1.066,0,0,0,1.478-.3l1.663-2.509a1.066,1.066,0,0,0-.3-1.478Z" transform="translate(-635.807 -295.968)"/>
              <rect id="矩形_28" data-name="矩形 28" class="cls-22" width="7.761" height="0.353" transform="translate(9.847 11.491) rotate(-56.463)"/>
              <path id="路径_346" data-name="路径 346" class="cls-23" d="M653.138,306.7a1.4,1.4,0,1,1,1.934-.392A1.394,1.394,0,0,1,653.138,306.7Z" transform="translate(-642.247 -299.708)"/>
            </g>
            <line id="直线_1" data-name="直线 1" class="cls-5" x1="3.719" y2="5.436" transform="translate(2.093 5.593)"/>
          </g>
          <g id="组_116" data-name="组 116" transform="translate(0 36.441)">
            <path id="路径_347" data-name="路径 347" class="cls-16" d="M634.324,295.346a47.52,47.52,0,0,1-6.341-5.332l3.436-3.477c6.362,6.287,12.2,9.12,17.351,8.422,5.955-.807,9.08-6.134,9.112-6.187l4.237,2.436c-.175.3-4.381,7.468-12.692,8.6C644.615,300.455,639.556,298.958,634.324,295.346Z" transform="translate(-618.402 -280.451)"/>
            <line id="直线_2" data-name="直线 2" class="cls-5" x1="4.584" y2="4.73" transform="translate(8.907 5.72)"/>
            <g id="组_115" data-name="组 115">
              <rect id="矩形_29" data-name="矩形 29" class="cls-16" width="7.929" height="7.352" transform="matrix(0.685, -0.728, 0.728, 0.685, 5.297, 7.764)"/>
              <path id="路径_348" data-name="路径 348" class="cls-16" d="M602.1,295.416a2.872,2.872,0,1,1,4.059-.124A2.872,2.872,0,0,1,602.1,295.416Z" transform="translate(-601.154 -282.972)"/>
              <path id="路径_349" data-name="路径 349" class="cls-16" d="M615.706,274.946l-3.311-3.115a1.027,1.027,0,1,1-1.655.048l-6.871,7.3,4.165,3.919Z" transform="translate(-602.876 -270.982)"/>
              <path id="路径_350" data-name="路径 350" class="cls-16" d="M622.973,272.494a1.029,1.029,0,0,0,1.41-1.5.967.967,0,0,0-.126-.1,1.024,1.024,0,0,0-1.21.038,1.106,1.106,0,0,0-.119.1,1.044,1.044,0,0,0-.1.124A1.027,1.027,0,0,0,622.973,272.494Z" transform="translate(-614.969 -270.266)"/>
              <path id="路径_351" data-name="路径 351" class="cls-9" d="M629.147,293.421l5.713-6.072h0c.706.663.953,1.546.553,1.972l-4.264,4.533c-.4.425-1.3.232-2-.432Z" transform="translate(-619.151 -280.974)"/>
              <path id="路径_352" data-name="路径 352" class="cls-20" d="M611.721,276.318a.532.532,0,0,1-.012-.753l4.111-4.37a.534.534,0,0,1,.753-.035h0a.534.534,0,0,1,.011.754l-4.111,4.37a.533.533,0,0,1-.753.035Z" transform="translate(-607.828 -270.46)"/>
              <path id="路径_353" data-name="路径 353" class="cls-9" d="M613.2,274.745a.533.533,0,0,1-.012-.753l4.111-4.37a.533.533,0,0,1,.753-.035h0a.533.533,0,0,1,.011.753l-4.112,4.37a.531.531,0,0,1-.752.034Z" transform="translate(-608.781 -269.448)"/>
              <path id="路径_354" data-name="路径 354" class="cls-9" d="M602.568,286.047a.534.534,0,0,1-.012-.754l4.112-4.37a.533.533,0,0,1,.753-.034h0a.532.532,0,0,1,.011.753l-4.111,4.37a.533.533,0,0,1-.753.035Z" transform="translate(-601.935 -276.725)"/>
              <g id="组_114" data-name="组 114" transform="translate(0 7.477)">
                <g id="组_113" data-name="组 113" class="cls-24">
                  <path id="路径_355" data-name="路径 355" class="cls-9" d="M592.2,296.981a.542.542,0,0,1-.023-.765l4.112-4.37a.541.541,0,0,1,.764-.023h0a.541.541,0,0,1,.023.764l-4.112,4.371a.541.541,0,0,1-.764.024Z" transform="translate(-595.254 -291.236)"/>
                </g>
              </g>
              <path id="路径_357" data-name="路径 357" class="cls-20" d="M626.5,277.574a1.09,1.09,0,0,0-1.54.047l-2.107,2.24a1.089,1.089,0,0,0,.047,1.54h0a1.09,1.09,0,0,0,1.54-.047l2.107-2.24a1.089,1.089,0,0,0-.047-1.54Z" transform="translate(-614.908 -274.489)"/>
              <rect id="矩形_30" data-name="矩形 30" class="cls-22" width="7.929" height="0.36" transform="translate(9.87 12.066) rotate(-46.75)"/>
              <path id="路径_358" data-name="路径 358" class="cls-23" d="M633.117,286.658a1.426,1.426,0,1,1,2.015-.062A1.426,1.426,0,0,1,633.117,286.658Z" transform="translate(-621.419 -278.943)"/>
            </g>
          </g>
          <path id="路径_359" data-name="路径 359" class="cls-20" d="M798.822,242.912a16.446,16.446,0,0,1-12.009,12.473,22.928,22.928,0,0,1-8.779.626l.6-3.864c.543.082,13.322,1.862,16.4-10.2Z" transform="translate(-715.012 -215.299)"/>
          <path id="路径_360" data-name="路径 360" class="cls-20" d="M729.454,230.642a10.877,10.877,0,0,1-13.735,6.924h0a10.876,10.876,0,0,1-6.924-13.735l6.352-19.267a10.876,10.876,0,0,1,13.734-6.924h0a10.876,10.876,0,0,1,6.924,13.734Z" transform="translate(-670.079 -186.42)"/>
          <path id="路径_361" data-name="路径 361" class="cls-5" d="M739.883,234.08A10.876,10.876,0,0,1,726.148,241h0a10.877,10.877,0,0,1-6.924-13.735L725.576,208a10.877,10.877,0,0,1,13.735-6.924h0a10.876,10.876,0,0,1,6.924,13.735Z" transform="translate(-676.794 -188.633)"/>
          <path id="路径_362" data-name="路径 362" class="cls-9" d="M736.627,290.991l-18.918-6.237a.917.917,0,0,1-.584-1.157h0a.916.916,0,0,1,1.157-.583L737.2,289.25a.916.916,0,0,1,.583,1.157h0A.917.917,0,0,1,736.627,290.991Z" transform="translate(-675.767 -241.711)"/>
          <rect id="矩形_31" data-name="矩形 31" class="cls-5" width="3.575" height="0.886" transform="translate(43.222 44.43) rotate(-71.752)"/>
          <rect id="矩形_32" data-name="矩形 32" class="cls-5" width="3.575" height="0.886" transform="translate(47.517 45.846) rotate(-71.754)"/>
          <rect id="矩形_33" data-name="矩形 33" class="cls-5" width="3.575" height="0.886" transform="translate(54.277 48.075) rotate(-71.754)"/>
          <rect id="矩形_34" data-name="矩形 34" class="cls-5" width="3.575" height="0.886" transform="translate(58.571 49.49) rotate(-71.754)"/>
          <path id="路径_363" data-name="路径 363" class="cls-9" d="M831.685,216.808a.5.5,0,0,0-.928-.249h0l-.615,2.3c-.025-.034-.05-.068-.076-.1l.88-3.292h0a.593.593,0,0,0-1.1-.294h0l-.746,2.788-.092-.043.861-3.22h0a.593.593,0,0,0-1.1-.293h0l-.856,3.2-.1-.011.74-2.764h0a.593.593,0,0,0-1.1-.293h0l-1.069,4a.307.307,0,0,1-.522-.183l.032-.975h0a.593.593,0,0,0-1.132-.094h0l-.387,5.262-.008,0,.528,1.52,3.765,1.07,1.464-2.5a.282.282,0,0,0,.032-.051h.005l1.543-5.767Z" transform="translate(-744.834 -197.381)"/>
          <g id="组_117" data-name="组 117" transform="translate(38.537)">
            <path id="路径_364" data-name="路径 364" class="cls-5" d="M715.861,208.155a1.931,1.931,0,1,1-3.125,2.269h0a.1.1,0,0,0-.011-.016c-.021-.03-.041-.062-.061-.093a23.1,23.1,0,0,1-3.1-8.1,16.444,16.444,0,0,1,6.164-16.179l2.491,3.015C709.107,196.573,714.974,206.741,715.861,208.155Z" transform="translate(-709.286 -179.302)"/>
            <path id="路径_365" data-name="路径 365" class="cls-9" d="M731.5,167.3a.5.5,0,0,1,.7.659l0,0-1.63,1.734.126.011,2.334-2.482,0,0a.593.593,0,0,1,.828.778l0,0-1.977,2.1.085.055,2.283-2.428,0,0a.593.593,0,0,1,.827.778l0,0-2.268,2.413c.022.027.043.053.062.079l1.96-2.085,0,0a.593.593,0,0,1,.827.778l0,0-2.833,3.013a.308.308,0,0,0,.431.348l.812-.541,0,0a.593.593,0,0,1,.675.913l0,0-4.27,3.1,0,.009-1.57.352-2.892-2.637,1.353-2.56a.383.383,0,0,1,.027-.054l0,0,4.09-4.35Z" transform="translate(-720.071 -167.129)"/>
          </g>
          <rect id="矩形_35" data-name="矩形 35" class="cls-20" width="11.471" height="5.227" rx="1.242" transform="matrix(0.95, 0.313, -0.313, 0.95, 48.999, 36.407)"/>
          <path id="矩形_36" data-name="矩形 36" class="cls-25" d="M.423,0H.9A.423.423,0,0,1,1.32.423V.508A.424.424,0,0,1,.9.931H.424A.424.424,0,0,1,0,.508V.423A.423.423,0,0,1,.423,0Z" transform="translate(55.047 39.539) rotate(18.246)"/>
          <path id="矩形_37" data-name="矩形 37" class="cls-25" d="M.423,0H.9A.423.423,0,0,1,1.32.423V.508A.424.424,0,0,1,.9.931H.424A.424.424,0,0,1,0,.508V.423A.423.423,0,0,1,.423,0Z" transform="translate(53.235 38.942) rotate(18.246)"/>
          <path id="矩形_38" data-name="矩形 38" class="cls-9" d="M.423,0H2.8a.424.424,0,0,1,.424.424V.508A.423.423,0,0,1,2.8.931H.424A.424.424,0,0,1,0,.508V.423A.423.423,0,0,1,.423,0Z" transform="translate(52.779 40.326) rotate(18.247)"/>
          <path id="矩形_39" data-name="矩形 39" class="cls-25" d="M.424,0H.9A.424.424,0,0,1,1.32.424V.508A.423.423,0,0,1,.9.931H.424A.424.424,0,0,1,0,.508V.424A.424.424,0,0,1,.424,0Z" transform="translate(56.958 40.169) rotate(18.247)"/>
          <path id="矩形_40" data-name="矩形 40" class="cls-25" d="M.424,0H.9A.423.423,0,0,1,1.32.423V.508A.423.423,0,0,1,.9.931H.423A.423.423,0,0,1,0,.508V.424A.424.424,0,0,1,.424,0Z" transform="translate(56.502 41.553) rotate(18.247)"/>
          <circle id="椭圆_9" data-name="椭圆 9" class="cls-26" cx="8.245" cy="8.245" r="8.245" transform="translate(48.476 19.537) rotate(-11.608)"/>
          <circle id="椭圆_10" data-name="椭圆 10" class="cls-27" cx="7.214" cy="7.214" r="7.214" transform="matrix(0.894, -0.448, 0.448, 0.894, 48.395, 22.698)"/>
          <path id="路径_366" data-name="路径 366" class="cls-28" d="M761.91,229.08a7.214,7.214,0,0,0-11.856-7.454,7.214,7.214,0,0,1,6.26,12.3A7.212,7.212,0,0,0,761.91,229.08Z" transform="translate(-696.998 -200.916)"/>
        </g>
      </g>
    </g>
  </g>
</svg>
