<svg xmlns="http://www.w3.org/2000/svg" width="22.625" height="18.708" viewBox="0 0 22.625 18.708">
  <defs>
    <style>
      .cls-1 {
        fill: #5d2a74;
      }
    </style>
  </defs>
  <g id="组_66081" data-name="组 66081" transform="translate(-120.711 -188.397)">
    <path id="路径_51975" data-name="路径 51975" class="cls-1" d="M159.648,195.142a9.257,9.257,0,0,1,2.436,1.392c-.236.247-.477.49-.725.725a5.932,5.932,0,0,0-2.987-1.16,6.106,6.106,0,0,0-3.422.783,5.9,5.9,0,0,0-2.465,7.308h-5.1a3.8,3.8,0,0,0-4.582-3.973,5.658,5.658,0,0,0-1.8.841c.087-.6.248-1.125.348-1.711.977-.184,1.787-.687,1.769-1.769-.292-.192-.945-.022-1.334-.116.2-1.173,1.422-1.307,2.7-1.537.88-.159,1.791-.273,2.523-.406.23-1.829.352-3.766.551-5.626-.445-.068-1.015-.01-1.508-.029v-1.392c2.373,0,4.606-.029,7.018-.029,1.8,0,4.169-.3,5.075.609a4.939,4.939,0,0,1,.986,2.813C159.3,192.981,159.5,194.1,159.648,195.142Zm-3.393-2.117a9.253,9.253,0,0,0-.319-2.494c-.335-.807-1.157-.667-2.262-.667h-4.7c-.2,1.4-.279,2.93-.435,4.379.284.3.748.412.957.783a2.607,2.607,0,0,1,.406-.29c-.027-.281-.481-.475-.464-.812a.33.33,0,0,1,.348-.319c.242.009.565.534.725.754.244.336.447.652.609.9.061.143-.11.315,0,.319,1.606.067,3.586.01,5.336.029q-.1-1.291-.2-2.581ZM149.7,195.4c0,.1.094.1.087.2h.754c-.02-.168-.238-.378-.377-.522C150.021,195.2,149.853,195.3,149.7,195.4Z" transform="translate(-19.701 0)"/>
    <path id="路径_51976" data-name="路径 51976" class="cls-1" d="M137.656,480.182a5.111,5.111,0,0,1,3.915,1.218,5,5,0,0,1,1.74,3.393,4.84,4.84,0,0,1-1.247,3.828,4.912,4.912,0,0,1-3.364,1.74A5.16,5.16,0,0,1,134.756,489a4.809,4.809,0,0,1-1.653-3.625,5,5,0,0,1,2.668-4.611A4.888,4.888,0,0,1,137.656,480.182Zm-1.363,4.147a2.208,2.208,0,0,0,1.16,2.929,2.157,2.157,0,0,0,2.842-1.479,2.079,2.079,0,0,0-2.378-2.61A2.179,2.179,0,0,0,136.293,484.329Zm-12.7-.174a3.124,3.124,0,0,1,3.161,4.408,3.252,3.252,0,0,1-4.93,1.131,3.212,3.212,0,0,1-1.1-2.668,3.029,3.029,0,0,1,1.1-2.175A3.278,3.278,0,0,1,123.59,484.155Zm-.957,2.61a1.333,1.333,0,0,0,1.711,1.74,1.352,1.352,0,0,0,.754-.754,1.292,1.292,0,0,0-1.479-1.74A1.224,1.224,0,0,0,122.633,486.765Z" transform="translate(0 -283.299)"/>
  </g>
</svg>
