<svg xmlns="http://www.w3.org/2000/svg" xmlns:xlink="http://www.w3.org/1999/xlink" width="22" height="22" viewBox="0 0 22 22">
  <defs>
    <style>
      .cls-1 {
        fill: url(#radial-gradient);
      }

      .cls-2, .cls-3 {
        stroke: none;
      }

      .cls-3 {
        fill: #423084;
      }
    </style>
    <radialGradient id="radial-gradient" cx="0.5" cy="0.5" r="0.539" gradientTransform="matrix(-0.927, 0.374, 0.374, 0.927, 0.777, -0.151)" gradientUnits="objectBoundingBox">
      <stop offset="0" stop-color="#b776e2"/>
      <stop offset="1" stop-color="#7a4dcc"/>
    </radialGradient>
  </defs>
  <g id="组_46314" data-name="组 46314" transform="translate(47 17.634)">
    <g id="组_21264" data-name="组 21264" transform="translate(-47 -17.634)">
      <g id="Oval" class="cls-1" transform="translate(0)">
        <path class="cls-2" d="M 10.999755859375 21.74951553344727 C 8.128385543823242 21.74951553344727 5.428885936737061 20.63134574890137 3.398525953292847 18.60098648071289 C 1.368165850639343 16.57062530517578 0.2499958574771881 13.87112617492676 0.2499958574771881 10.999755859375 C 0.2499958574771881 8.128385543823242 1.368165850639343 5.428885936737061 3.398525953292847 3.398525953292847 C 5.428885936737061 1.368165850639343 8.128385543823242 0.2499958574771881 10.999755859375 0.2499958574771881 C 13.87112617492676 0.2499958574771881 16.57062530517578 1.368165850639343 18.60098648071289 3.398525953292847 C 20.63134574890137 5.428885936737061 21.74951553344727 8.128385543823242 21.74951553344727 10.999755859375 C 21.74951553344727 13.87112617492676 20.63134574890137 16.57062530517578 18.60098648071289 18.60098648071289 C 16.57062530517578 20.63134574890137 13.87112617492676 21.74951553344727 10.999755859375 21.74951553344727 Z"/>
        <path class="cls-3" d="M 10.999755859375 0.4999961853027344 C 5.210165023803711 0.4999961853027344 0.4999961853027344 5.210165023803711 0.4999961853027344 10.999755859375 C 0.4999961853027344 16.78934478759766 5.210165023803711 21.49951553344727 10.999755859375 21.49951553344727 C 16.78934478759766 21.49951553344727 21.49951553344727 16.78934478759766 21.49951553344727 10.999755859375 C 21.49951553344727 5.210165023803711 16.78934478759766 0.4999961853027344 10.999755859375 0.4999961853027344 M 10.999755859375 -3.814697265625e-06 C 17.07474517822266 -3.814697265625e-06 21.99951553344727 4.924755096435547 21.99951553344727 10.999755859375 C 21.99951553344727 17.07474517822266 17.07474517822266 21.99951553344727 10.999755859375 21.99951553344727 C 4.924755096435547 21.99951553344727 -3.814697265625e-06 17.07474517822266 -3.814697265625e-06 10.999755859375 C -3.814697265625e-06 4.924755096435547 4.924755096435547 -3.814697265625e-06 10.999755859375 -3.814697265625e-06 Z"/>
      </g>
    </g>
  </g>
</svg>
