<svg xmlns="http://www.w3.org/2000/svg" width="19.997" height="20" viewBox="0 0 19.997 20">
  <defs>
    <style>
      .cls-1 {
        fill: #4e1c63;
      }
    </style>
  </defs>
  <path id="路径_51995" data-name="路径 51995" class="cls-1" d="M20.382,8.544c-.057-.746-.2-.814-.934-.755a1.7,1.7,0,0,1-1.231-3.051c.429-.351.481-.636.092-1.047-.585-.619-1.195-1.216-1.831-1.781-.494-.437-.724-.381-1.141.145a1.671,1.671,0,0,1-2.067.487A1.655,1.655,0,0,1,12.3.782C12.34.2,12.17,0,11.594-.042c-.45-.035-.9-.059-1.322-.086-.444.049-.857.085-1.267.14-.574.076-.7.244-.647.831A1.7,1.7,0,0,1,5.3,2.129c-.334-.394-.625-.451-.994-.1-.62.582-1.229,1.182-1.793,1.82-.482.544-.429.729.129,1.194a1.637,1.637,0,0,1,.612,1.693,1.612,1.612,0,0,1-1.282,1.3,3.469,3.469,0,0,1-.8.019.561.561,0,0,0-.639.516,9.431,9.431,0,0,0,.042,2.952.553.553,0,0,0,.67.514A3.973,3.973,0,0,1,1.863,12a1.7,1.7,0,0,1,.869,3.052c-.477.384-.53.65-.115,1.091.575.611,1.171,1.206,1.8,1.76.536.471.74.416,1.187-.155A1.7,1.7,0,0,1,8.071,17.5a1.727,1.727,0,0,1,.574,1.613c-.049.469.124.739.535.747.924.019,1.85.022,2.771-.032.6-.036.719-.25.651-.855a1.7,1.7,0,0,1,3.054-1.3c.337.417.634.479,1.016.114.634-.6,1.25-1.23,1.831-1.883.422-.475.362-.731-.146-1.115a1.654,1.654,0,0,1-.695-1.274,1.692,1.692,0,0,1,1.913-1.792c.559.055.832-.1.845-.591A25.564,25.564,0,0,0,20.382,8.544Zm-9.924,5.688a4.313,4.313,0,1,1,4.325-4.3A4.326,4.326,0,0,1,10.458,14.232Z" transform="translate(-0.438 0.128)"/>
</svg>
