<svg xmlns="http://www.w3.org/2000/svg" width="69.74" height="69.74" viewBox="0 0 69.74 69.74">
  <defs>
    <style>
      .cls-1 {
        fill: #892db2;
      }
    </style>
  </defs>
  <path id="路径_31346" data-name="路径 31346" class="cls-1" d="M97.758,35.378A34.965,34.965,0,1,0,100.5,48.954,34.771,34.771,0,0,0,97.758,35.378ZM65.631,80.189A31.234,31.234,0,1,1,96.866,48.954,31.273,31.273,0,0,1,65.631,80.189ZM81.174,37.1h0a1.826,1.826,0,0,0-2.57.141L61.276,56.548l-8.9-7.982a1.826,1.826,0,0,0-2.57.141h0a1.826,1.826,0,0,0,.141,2.57l10.213,9.155c.008.008.017.008.025.017l.017.017h0a1.826,1.826,0,0,0,2.57-.141L81.315,39.658a1.816,1.816,0,0,0-.141-2.562Z" transform="translate(-30.761 -14.084)"/>
</svg>
