<svg xmlns="http://www.w3.org/2000/svg" xmlns:xlink="http://www.w3.org/1999/xlink" width="32" height="32" viewBox="0 0 32 32">
  <defs>
    <style>
      .cls-1 {
        fill: #fff;
        stroke: #707070;
      }

      .cls-2 {
        fill: #ededed;
      }

      .cls-3 {
        clip-path: url(#clip-path);
      }

      .cls-4 {
        fill: #4e1c63;
      }
    </style>
    <clipPath id="clip-path">
      <circle id="椭圆_13" data-name="椭圆 13" class="cls-1" cx="12" cy="12" r="12" transform="translate(216 385)"/>
    </clipPath>
  </defs>
  <g id="组_134" data-name="组 134" transform="translate(-172 -381)">
    <circle id="椭圆_12" data-name="椭圆 12" class="cls-2" cx="16" cy="16" r="16" transform="translate(172 381)"/>
    <g id="蒙版组_6" data-name="蒙版组 6" class="cls-3" transform="translate(-40)">
      <path id="路径_371" data-name="路径 371" class="cls-4" d="M293.9,236.549V226.516l3.17,3.17a.739.739,0,0,0,1.052-1.036l-.007-.008-4.431-4.431a.738.738,0,0,0-1.045,0l-4.431,4.431a.739.739,0,0,0,1.045,1.045l3.17-3.17v10.033a.738.738,0,1,0,1.477,0Z" transform="translate(521.324 627.287) rotate(180)"/>
    </g>
  </g>
</svg>
