<svg xmlns="http://www.w3.org/2000/svg" xmlns:xlink="http://www.w3.org/1999/xlink" width="124.765" height="58.073" viewBox="0 0 124.765 58.073">
  <defs>
    <style>
      .cls-1 {
        fill: url(#linear-gradient);
      }

      .cls-2 {
        fill: url(#linear-gradient-2);
      }

      .cls-3 {
        fill: url(#linear-gradient-3);
      }

      .cls-4 {
        fill: url(#linear-gradient-4);
      }

      .cls-5 {
        opacity: 0.91;
      }

      .cls-6 {
        fill: #eaeaea;
        opacity: 0.606;
      }

      .cls-7 {
        opacity: 0.933;
        fill: url(#linear-gradient-5);
      }

      .cls-8 {
        fill: #fffcfc;
        opacity: 0.325;
      }

      .cls-9 {
        fill: #fff;
      }

      .cls-10 {
        fill: url(#linear-gradient-6);
      }

      .cls-11 {
        fill: none;
        stroke: #1bd1d2;
        stroke-width: 3px;
      }

      .cls-12 {
        opacity: 0.4;
        fill: url(#linear-gradient-7);
      }

      .cls-13 {
        fill: url(#linear-gradient-8);
      }

      .cls-14 {
        fill: url(#linear-gradient-9);
      }
    </style>
    <linearGradient id="linear-gradient" x1="-0.47" y1="-1.86" x2="0.689" y2="1" gradientUnits="objectBoundingBox">
      <stop offset="0" stop-color="#fff"/>
      <stop offset="1" stop-color="#d2d2d2" stop-opacity="0"/>
    </linearGradient>
    <linearGradient id="linear-gradient-2" x1="1.19" y1="-1.109" x2="0.545" y2="0.556" xlink:href="#linear-gradient"/>
    <linearGradient id="linear-gradient-3" x1="0.5" y1="-2.212" x2="0.5" xlink:href="#linear-gradient"/>
    <linearGradient id="linear-gradient-4" x1="1.001" y1="-0.978" x2="0.388" y2="1.047" xlink:href="#linear-gradient"/>
    <linearGradient id="linear-gradient-5" x1="0.5" x2="0.5" y2="1" gradientUnits="objectBoundingBox">
      <stop offset="0" stop-color="#f7fafa"/>
      <stop offset="0.154" stop-color="#f6f9f9" stop-opacity="0.969"/>
      <stop offset="1" stop-color="#d2d2d2" stop-opacity="0"/>
    </linearGradient>
    <linearGradient id="linear-gradient-6" y1="0.5" x2="1" y2="0.5" gradientUnits="objectBoundingBox">
      <stop offset="0" stop-color="#fff"/>
      <stop offset="1" stop-color="#fff"/>
    </linearGradient>
    <linearGradient id="linear-gradient-7" y1="0.5" x2="1" y2="0.5" gradientUnits="objectBoundingBox">
      <stop offset="0" stop-color="#dff6f4"/>
      <stop offset="1" stop-color="#1bd1d2"/>
    </linearGradient>
    <linearGradient id="linear-gradient-8" x1="0.512" y1="-0.409" x2="0.497" y2="0.688" xlink:href="#linear-gradient-7"/>
    <linearGradient id="linear-gradient-9" x1="0.489" y1="-1.356" x2="0.501" y2="0.583" xlink:href="#linear-gradient-7"/>
  </defs>
  <g id="页面-1" transform="translate(0 -14.168)">
    <g id="空状态图标备份" transform="translate(0 14.168)">
      <g id="没有数据_1" transform="translate(0 0)">
        <path id="路径" class="cls-1" d="M63.654,118.113c-2.665-1.206-5.554-4.44-4.735-7.483a.99.99,0,0,1,1.073.416s4.623,7.221,3.326.578c-.611-3.122-1.663-6.14-1.746-9.366-.137-5.862,5.242-7.487,6.789-1.01.2.856.985,7.82,2.764,7.022a1.247,1.247,0,0,0,.532-.54c.9-1.48,1.172-3.654,2.827-4.157,1.451-.457,2.881.8,3.662,2.1,1.584,2.644,3.7,9.217.462,11.445s-11.424,2.582-14.924,1.023Z" transform="translate(-38.985 -73.497)"/>
        <path id="路径-2" data-name="路径" class="cls-2" d="M271.73,150c-1.172-2.681-1.143-7.017,1.517-8.73a.985.985,0,0,1,.5,1.044s-1.418,8.46,2.079,2.66c1.663-2.731,2.91-5.67,4.989-8.119,3.821-4.465,8.913-2.041,5.716,3.8-.415.773-4.515,6.46-2.66,7.067a1.277,1.277,0,0,0,.757-.046c1.663-.491,3.326-1.921,4.9-1.2,1.38.636,1.6,2.523,1.305,4.016-.6,3.023-3.533,6.4-7.433,5.878-3.983-.54-10.123-2.839-11.657-6.344Z" transform="translate(-179.74 -98.352)"/>
        <path id="路径-3" data-name="路径" class="cls-3" d="M124.765,164.966c-15.677-10.755-37.83-17.46-62.383-17.46S15.677,154.212,0,164.966Z" transform="translate(0 -106.947)"/>
        <path id="形状结合" class="cls-4" d="M270.79,103.062a4.861,4.861,0,0,0-1.035,4.594c.411,1.089,1.65,1.1,1.563,2.611a4.936,4.936,0,0,1-.757,2.12A16.126,16.126,0,0,1,268,115.75a2.955,2.955,0,0,1,1.11,2.735,4.908,4.908,0,0,1-1.4,2.731,1.983,1.983,0,0,1-.831.6,2.123,2.123,0,0,1-.956,0,16.627,16.627,0,0,1-4.461-1.426,3.64,3.64,0,0,1-2.078-1.908c-.343-1.05.2-1.383.8-1.712l.154-.085a2.01,2.01,0,0,0,.791-.656,7.37,7.37,0,0,0,.6-2.469c.224-1.177-.108-3.322,1.363-3.783.569-.179,1.189-.137,1.758-.32,1.237-.394,1.749-1.557,2.245-2.734l.09-.214a7,7,0,0,1,1.019-1.853C268.828,103.927,270.375,103.569,270.79,103.062Zm-3.592,6.98s-4.477,5.221-4.332,10.048h1.447A29.514,29.514,0,0,1,267.2,110.042Z" transform="translate(-171.97 -77.469)"/>
        <g id="编组-4" class="cls-5" transform="translate(48.984)">
          <rect id="矩形" class="cls-6" width="33.565" height="43.791" rx="8" transform="translate(0 5.609)"/>
          <rect id="矩形-2" data-name="矩形" class="cls-7" width="29.545" height="38.803" rx="8" transform="translate(2.008 8.104)"/>
          <path id="路径-4" data-name="路径" class="cls-8" d="M41.233,5.539h-3.9a3.8,3.8,0,1,0-7.167-1.763,3.741,3.741,0,0,0,.416,1.75h-3.9a.777.777,0,0,0-.773.777V8.848a.773.773,0,0,0,.773.773H41.216a.777.777,0,0,0,.777-.773V6.316A.777.777,0,0,0,41.233,5.539Z" transform="translate(-17.171 0)"/>
          <path id="路径-5" data-name="路径" class="cls-9" d="M21.226,57.482H16.794a.831.831,0,0,1,0-1.663h4.44a.831.831,0,0,1,0,1.663Z" transform="translate(-10.588 -37.023)"/>
          <path id="路径-6" data-name="路径" class="cls-9" d="M27.67,70.766H15.918a.831.831,0,1,1,0-1.663H27.67a.831.831,0,0,1,0,1.663Z" transform="translate(-10.006 -45.834)"/>
          <path id="路径-7" data-name="路径" class="cls-9" d="M27.67,84.482H15.918a.831.831,0,1,1,0-1.663H27.67a.831.831,0,0,1,0,1.663Z" transform="translate(-10.006 -54.931)"/>
          <circle id="椭圆形" class="cls-10" cx="2.203" cy="2.203" r="2.203" transform="translate(14.579 1.511)"/>
        </g>
        <g id="编组-3" transform="translate(64.972 28.395)">
          <ellipse id="椭圆形-2" data-name="椭圆形" class="cls-11" cx="8.701" cy="8.859" rx="8.701" ry="8.859" transform="translate(0 0)"/>
          <circle id="椭圆形-3" data-name="椭圆形" class="cls-12" cx="7.874" cy="7.874" r="7.874" transform="translate(0.827 0.985)"/>
          <path id="路径-8" data-name="路径" class="cls-9" d="M9.192,14.828h0A1.588,1.588,0,0,1,7.6,13.246a6.439,6.439,0,0,1,1.711-4.28A5.663,5.663,0,0,1,13.429,7.42a1.6,1.6,0,0,1-.021,3.192,2.2,2.2,0,0,0-2.225,1.145,3.687,3.687,0,0,0-.39,1.489A1.6,1.6,0,0,1,9.192,14.828Z" transform="translate(-5.044 -4.921)"/>
          <path id="矩形-3" data-name="矩形" class="cls-13" d="M0,0H4.1V8.414H0Z" transform="matrix(0.684, -0.73, 0.73, 0.684, 15.333, 18.953)"/>
          <path id="矩形-4" data-name="矩形" class="cls-14" d="M0,0H1.721V3.122H0Z" transform="matrix(0.684, -0.73, 0.73, 0.684, 14.426, 16.472)"/>
        </g>
      </g>
    </g>
  </g>
</svg>
