<svg id="组_66082" data-name="组 66082" xmlns="http://www.w3.org/2000/svg" width="24" height="24" viewBox="0 0 24 24">
  <defs>
    <style>
      .cls-1 {
        fill: #0a9d74;
      }

      .cls-2 {
        fill: #fff;
      }
    </style>
  </defs>
  <path id="路径_395" data-name="路径 395" class="cls-1" d="M13.049,24a12,12,0,1,1,12-12A12,12,0,0,1,13.049,24Zm-.308-12.308" transform="translate(-1.049)"/>
  <path id="路径_396" data-name="路径 396" class="cls-2" d="M249.066,238.4h12.35v3.117h-12.35Z" transform="translate(-243.241 -232.796)"/>
  <path id="路径_397" data-name="路径 397" class="cls-2" d="M448.754,356.422v12.35h-3.117v-12.35Z" transform="translate(-435.195 -348.051)"/>
  <path id="路径_398" data-name="路径 398" class="cls-2" d="M168.821,435.8c-4.558,0-8.254.965-8.254,2.156s3.7,2.155,8.254,2.155,8.254-.965,8.254-2.155S173.38,435.8,168.821,435.8Zm-.056,3.335c-4.01,0-7.261-.618-7.261-1.38s3.251-1.38,7.261-1.38,7.261.618,7.261,1.38-3.251,1.379-7.261,1.379Z" transform="translate(-156.821 -425.563)"/>
</svg>
