<svg xmlns="http://www.w3.org/2000/svg" xmlns:xlink="http://www.w3.org/1999/xlink" width="23" height="23" viewBox="0 0 23 23">
  <defs>
    <style>
      .cls-1 {
        fill: #6c5dba;
      }

      .cls-2 {
        fill: #473a8c;
      }

      .cls-3 {
        fill: url(#linear-gradient);
      }

      .cls-4 {
        opacity: 0.513;
        fill: url(#linear-gradient-3);
      }
    </style>
    <linearGradient id="linear-gradient" x1="0.5" x2="0.5" y2="1" gradientUnits="objectBoundingBox">
      <stop offset="0" stop-color="#ebd9f9"/>
      <stop offset="1" stop-color="#8676b7"/>
    </linearGradient>
    <linearGradient id="linear-gradient-3" y1="0.5" x2="0.993" y2="0.5" gradientUnits="objectBoundingBox">
      <stop offset="0" stop-color="#fff" stop-opacity="0"/>
      <stop offset="0.448" stop-color="#fff"/>
      <stop offset="1" stop-color="#fff" stop-opacity="0.043"/>
    </linearGradient>
  </defs>
  <g id="组_46333" data-name="组 46333" transform="translate(-2894 -211.333)">
    <g id="组_46331" data-name="组 46331" transform="translate(2894 211.333)">
      <circle id="椭圆_467" data-name="椭圆 467" class="cls-1" cx="11.5" cy="11.5" r="11.5"/>
      <circle id="椭圆_468" data-name="椭圆 468" class="cls-2" cx="11" cy="11" r="11" transform="translate(1)"/>
    </g>
    <g id="组_46332" data-name="组 46332" transform="translate(2900.474 217.555)">
      <path id="路径_24494" data-name="路径 24494" class="cls-3" d="M32.639,215.207H31.077a1,1,0,0,1,0-2.006h1.561a1.044,1.044,0,0,1,.141.009v-2.131a.935.935,0,0,0-.888-.843h-8.2a.935.935,0,0,0-.93.938v6.137a.935.935,0,0,0,.791.807H32.05a.938.938,0,0,0,.731-.742V215.2a1.06,1.06,0,0,1-.142.01Z" transform="translate(-22.764 -208.254)"/>
      <path id="路径_24495" data-name="路径 24495" class="cls-3" d="M468.486,14.848a.445.445,0,1,0,.445-.445.445.445,0,0,0-.445.445Zm.293-4.542-.547-.988a.934.934,0,0,0-1.184-.308l-2.348,1.3h4.079Z" transform="translate(-460.352 -8.912)"/>
    </g>
    <rect id="矩形_16015" data-name="矩形 16015" class="cls-4" width="8.543" height="0.657" transform="translate(2901.229 219.712)"/>
  </g>
</svg>
