<svg xmlns="http://www.w3.org/2000/svg" width="16" height="16" viewBox="0 0 16 16">
  <defs>
    <style>
      .cls-1 {
        fill: #d80027;
      }

      .cls-2 {
        fill: #f5f5f5;
      }
    </style>
  </defs>
  <g id="组_66080" data-name="组 66080" transform="translate(0)">
    <path id="路径_51968" data-name="路径 51968" class="cls-1" d="M8,8,0,8A8,8,0,1,0,8,0,8,8,0,0,0,0,8Z" transform="translate(0 0)"/>
    <path id="路径_51969" data-name="路径 51969" class="cls-2" d="M193.1,343.046a2.069,2.069,0,0,1-1.63-.756.1.1,0,0,1,.009-.14.094.094,0,0,1,.133.01,2.014,2.014,0,0,0,2.343.52,1.159,1.159,0,0,1-.661-.124c-.725-.494-.4-1.017-.88-1.652a1.355,1.355,0,0,0-1.59-.507.8.8,0,0,1-.954-.686.052.052,0,0,0-.1-.006c-.837,2.338,1.682,5.234,4.27,3.151A2.68,2.68,0,0,1,193.1,343.046Zm-1.889-.794a.045.045,0,0,1-.086,0l-.1-.329-.333-.013a.046.046,0,0,1-.025-.083l.272-.2-.093-.328a.047.047,0,0,1,.071-.051l.266.207.275-.191a.046.046,0,0,1,.068.054l-.108.325.262.21a.046.046,0,0,1-.028.083l-.333-.006Zm3.745-.759a2.051,2.051,0,0,1,1.741-.405.1.1,0,0,1-.037.191,2.04,2.04,0,0,0-2.176,1.037,1.174,1.174,0,0,1,.6-.309c.867-.054.908.568,1.664.778s1.087-.073,1.568-.577a.777.777,0,0,1,1.161-.041.051.051,0,0,0,.08-.057c-.688-2.392-4.384-3.145-5.245.121A2.894,2.894,0,0,1,194.957,341.493Zm1.973-.536a.045.045,0,0,1,.068-.051l.269.2.272-.2a.045.045,0,0,1,.068.051l-.1.325.266.207a.047.047,0,0,1-.028.083l-.333,0-.108.325a.046.046,0,0,1-.086,0l-.1-.328-.333-.006a.046.046,0,0,1-.025-.083l.269-.2Z" transform="translate(-186.586 -334.397)"/>
    <path id="路径_51970" data-name="路径 51970" class="cls-2" d="M383.492,193.507a2.037,2.037,0,0,1,.057-1.784.1.1,0,0,1,.134-.043.094.094,0,0,1,.041.127,2.02,2.02,0,0,0,.44,2.359,1.151,1.151,0,0,1-.144-.654c.169-.852.785-.741,1.183-1.423s.21-1.068-.156-1.658a.784.784,0,0,1,.262-1.136.051.051,0,0,0-.035-.093c-2.494.086-4.178,3.482-1.237,5.109A2.937,2.937,0,0,1,383.492,193.507Zm-.006-2.041a.045.045,0,0,1-.032-.08l.265-.21-.118-.312a.045.045,0,0,1,.067-.053l.29.179.268-.207a.046.046,0,0,1,.073.046l-.086.321.287.185a.045.045,0,0,1-.022.083l-.341.019-.092.321a.046.046,0,0,1-.086,0l-.124-.309Zm1.949,3.137a2.1,2.1,0,0,1,.95,1.531.1.1,0,0,1-.195.022,2.1,2.1,0,0,0-1.69-1.754,1.205,1.205,0,0,1,.488.475c.335.806-.246,1.037-.2,1.815s.421,1.01,1.059,1.312a.781.781,0,0,1,.415,1.09.052.052,0,0,0,.08.059,2.7,2.7,0,0,0-1.818-4.943A3.033,3.033,0,0,1,385.434,194.6Zm1.148,1.707a.046.046,0,0,1,.07.049l-.105.315.274.2a.045.045,0,0,1-.029.08h-.344l-.112.315a.048.048,0,0,1-.089,0l-.105-.315-.344-.006a.044.044,0,0,1-.025-.08l.277-.194-.1-.318a.046.046,0,0,1,.07-.049l.277.195Z" transform="translate(-376.558 -186.183)"/>
    <path id="路径_51971" data-name="路径 51971" class="cls-2" d="M236.926,539.382a2.173,2.173,0,0,1-1.218,1.387.1.1,0,1,1-.08-.179,2.136,2.136,0,0,0,1.212-2.159,1.229,1.229,0,0,1-.319.615c-.692.571-1.094.093-1.847.383s-.864.718-.97,1.419a.824.824,0,0,1-.947.74.054.054,0,0,0-.035.1,2.792,2.792,0,0,0,4.312-3.285A3.014,3.014,0,0,1,236.926,539.382Zm-1.333,1.63a.046.046,0,0,1-.029.083h-.344l-.112.325a.048.048,0,0,1-.089,0l-.105-.328-.344-.006a.045.045,0,0,1-.025-.083l.277-.2-.1-.328a.046.046,0,0,1,.07-.051l.277.2.281-.2a.046.046,0,0,1,.07.051l-.108.325Z" transform="translate(-229.095 -530.041)"/>
  </g>
</svg>
